<svg width="1920" height="700" viewBox="0 0 1920 700" fill="none" xmlns="http://www.w3.org/2000/svg">
<mask id="mask0_1_8" style="mask-type:luminance" maskUnits="userSpaceOnUse" x="0" y="0" width="1920" height="700">
<path fill-rule="evenodd" clip-rule="evenodd" d="M1920 0V700H0V0H1920Z" fill="white"/>
</mask>
<g mask="url(#mask0_1_8)">
<path opacity="0.59" fill-rule="evenodd" clip-rule="evenodd" d="M227.718 251.744C398.237 251.744 536.47 384.687 536.47 548.679C536.47 712.672 398.237 845.615 227.718 845.615C57.1991 845.615 -81.0342 712.672 -81.0342 548.679C-81.0342 384.687 57.1991 251.744 227.718 251.744Z" fill="#DBC6B9"/>
<path opacity="0.59" fill-rule="evenodd" clip-rule="evenodd" d="M1488.5 -32.8103C1646.99 -32.8103 1775.47 90.7544 1775.47 243.179C1775.47 395.603 1646.99 519.168 1488.5 519.168C1330.01 519.168 1201.53 395.603 1201.53 243.179C1201.53 90.7544 1330.01 -32.8103 1488.5 -32.8103Z" fill="#DBC6B9"/>
<path opacity="0.59" fill-rule="evenodd" clip-rule="evenodd" d="M1674.14 418.917C1817.23 418.917 1933.23 530.476 1933.23 668.091C1933.23 805.705 1817.23 917.264 1674.14 917.264C1531.05 917.264 1415.05 805.705 1415.05 668.091C1415.05 530.476 1531.05 418.917 1674.14 418.917Z" fill="#DBC6B9"/>
<path opacity="0.59" fill-rule="evenodd" clip-rule="evenodd" d="M621.575 -134.601C839.09 -134.601 1015.42 34.9811 1015.42 244.171C1015.42 453.36 839.09 622.942 621.575 622.942C404.061 622.942 227.73 453.36 227.73 244.171C227.73 34.9811 404.061 -134.601 621.575 -134.601Z" fill="#DBC6B9"/>
<path opacity="0.59" fill-rule="evenodd" clip-rule="evenodd" d="M1144.12 299.494C1293.76 299.494 1415.07 416.158 1415.07 560.068C1415.07 703.979 1293.76 820.643 1144.12 820.643C994.484 820.643 873.178 703.979 873.178 560.068C873.178 416.158 994.484 299.494 1144.12 299.494Z" fill="#DBC6B9"/>
</g>
</svg>
