<svg width="1060" height="160" viewBox="0 0 1060 160" fill="none" xmlns="http://www.w3.org/2000/svg">
<path opacity="0.59" fill-rule="evenodd" clip-rule="evenodd" d="M43.8129 32.8376C68.0101 32.8376 87.6258 52.5148 87.6258 76.7878C87.6258 101.061 68.0101 120.738 43.8129 120.738C19.6157 120.738 0 101.061 0 76.7878C0 52.5148 19.6157 32.8376 43.8129 32.8376Z" fill="#DBC6B9"/>
<path opacity="0.59" fill-rule="evenodd" clip-rule="evenodd" d="M817.767 52.6011C836.445 52.6011 851.587 67.7904 851.587 86.5273C851.587 105.264 836.445 120.454 817.767 120.454C799.088 120.454 783.946 105.264 783.946 86.5273C783.946 67.7904 799.088 52.6011 817.767 52.6011Z" fill="#DBC6B9"/>
<path opacity="0.59" fill-rule="evenodd" clip-rule="evenodd" d="M1026.18 0C1044.86 0 1060 15.1893 1060 33.9262C1060 52.6632 1044.86 67.8525 1026.18 67.8525C1007.5 67.8525 992.359 52.6632 992.359 33.9262C992.359 15.1893 1007.5 0 1026.18 0Z" fill="#DBC6B9"/>
<path opacity="0.59" fill-rule="evenodd" clip-rule="evenodd" d="M959.922 122.985C969.263 122.985 976.836 130.581 976.836 139.952C976.836 149.323 969.263 156.92 959.922 156.92C950.58 156.92 943.007 149.323 943.007 139.952C943.007 130.581 950.58 122.985 959.922 122.985Z" fill="#DBC6B9"/>
<path opacity="0.59" fill-rule="evenodd" clip-rule="evenodd" d="M471.91 55.575C500.657 55.575 523.96 78.9513 523.96 107.787C523.96 136.624 500.657 160 471.91 160C443.164 160 419.861 136.624 419.861 107.787C419.861 78.9513 443.164 55.575 471.91 55.575Z" fill="#DBC6B9"/>
</svg>
