<svg width="948" height="160" viewBox="0 0 948 160" fill="none" xmlns="http://www.w3.org/2000/svg">
<path fill-rule="evenodd" clip-rule="evenodd" d="M767.665 34.501C799.698 34.501 825.665 60.4685 825.665 92.501C825.665 124.533 799.698 150.501 767.665 150.501C735.633 150.501 709.665 124.533 709.665 92.501C709.665 60.4685 735.633 34.501 767.665 34.501V34.501Z" fill="#95857E"/>
<path fill-rule="evenodd" clip-rule="evenodd" d="M314.177 0C340.687 0 362.177 21.4904 362.177 48C362.177 74.5096 340.687 96 314.177 96C287.667 96 266.177 74.5096 266.177 48C266.177 21.4904 287.667 0 314.177 0V0Z" fill="#95857E"/>
<path fill-rule="evenodd" clip-rule="evenodd" d="M105.001 107.5C105.001 136.495 81.4959 160 52.501 160C23.5061 160 0.000976562 136.495 0.000976562 107.5C0.000976562 78.5051 23.5061 55 52.501 55C81.4959 55 105.001 78.5051 105.001 107.5V107.5Z" fill="#95857E"/>
<path fill-rule="evenodd" clip-rule="evenodd" d="M555.729 0C573.678 0 588.229 14.5508 588.229 32.5C588.229 50.4492 573.678 65 555.729 65C537.78 65 523.229 50.4492 523.229 32.5C523.229 14.5508 537.78 0 555.729 0V0Z" fill="#95857E"/>
<path d="M28.188 26.3781C33.2053 26.3781 37.5836 27.3958 41.323 29.4311C45.1096 31.4665 48.0443 34.4248 50.127 38.3061C52.2096 42.1401 53.251 46.7315 53.251 52.0801C53.251 57.2868 52.186 61.9018 50.056 65.9251C47.926 69.9485 44.944 73.0725 41.11 75.2971C37.3233 77.5218 32.9923 78.6341 28.117 78.6341C23.0996 78.6341 18.6976 77.6165 14.911 75.5811C11.1716 73.5458 8.26064 70.6111 6.17798 66.7771C4.09531 62.8958 3.05398 58.2808 3.05398 52.9321C3.05398 47.7255 4.11898 43.1105 6.24898 39.0871C8.37898 35.0638 11.3373 31.9398 15.124 29.7151C18.958 27.4905 23.3126 26.3781 28.188 26.3781ZM27.904 27.6561C25.3006 27.6561 23.005 28.7211 21.017 30.8511C19.029 32.9338 17.4906 35.8685 16.402 39.6551C15.3606 43.4418 14.84 47.7728 14.84 52.6481C14.84 57.5708 15.4316 61.9018 16.615 65.6411C17.8456 69.3805 19.4786 72.2678 21.514 74.3031C23.5966 76.3385 25.8923 77.3561 28.401 77.3561C31.0043 77.3561 33.3 76.3148 35.288 74.2321C37.276 72.1021 38.7906 69.1438 39.832 65.3571C40.9206 61.5705 41.465 57.2395 41.465 52.3641C41.465 47.4415 40.8496 43.1105 39.619 39.3711C38.4356 35.6318 36.8026 32.7445 34.72 30.7091C32.6846 28.6738 30.4126 27.6561 27.904 27.6561ZM93.3638 69.9011C93.3638 72.0785 93.6951 73.6641 94.3578 74.6581C95.0678 75.6521 96.2511 76.1491 97.9078 76.1491V77.6401C96.4404 77.4981 94.9731 77.4271 93.5058 77.4271C89.3878 77.4271 85.9324 77.7585 83.1398 78.4211V72.0311C80.9624 76.4331 77.1521 78.6341 71.7088 78.6341C68.1588 78.6341 65.5791 77.7111 63.9698 75.8651C63.2124 74.9658 62.6444 73.8061 62.2658 72.3861C61.9344 70.9188 61.7688 69.0018 61.7688 66.6351V48.6721C61.7688 46.4948 61.4138 44.9091 60.7038 43.9151C60.0411 42.9211 58.8814 42.4241 57.2248 42.4241V40.9331C58.6921 41.0751 60.1594 41.1461 61.6268 41.1461C65.7448 41.1461 69.2001 40.8148 71.9928 40.1521V69.5461C71.9928 71.5341 72.2768 73.0251 72.8448 74.0191C73.4601 75.0131 74.5961 75.5101 76.2528 75.5101C78.1461 75.5101 79.7554 74.7291 81.0808 73.1671C82.4534 71.5578 83.1398 69.5935 83.1398 67.2741V48.6721C83.1398 46.4948 82.7848 44.9091 82.0748 43.9151C81.4121 42.9211 80.2524 42.4241 78.5958 42.4241V40.9331C80.1104 41.0751 81.5778 41.1461 82.9978 41.1461C87.1158 41.1461 90.5711 40.8148 93.3638 40.1521V69.9011ZM125.487 39.9391C127.617 39.9391 129.227 40.5781 130.315 41.8561C131.404 43.1341 131.948 44.6725 131.948 46.4711C131.948 48.2225 131.428 49.6661 130.386 50.8021C129.392 51.8908 128.067 52.4351 126.41 52.4351C124.801 52.4351 123.523 52.0328 122.576 51.2281C121.63 50.3761 121.156 49.2638 121.156 47.8911C121.156 45.6191 122.198 43.7731 124.28 42.3531C124.091 42.3058 123.807 42.2821 123.428 42.2821C122.955 42.2821 122.576 42.3295 122.292 42.4241C120.494 42.7081 118.955 43.7968 117.677 45.6901C116.447 47.5835 115.831 49.5241 115.831 51.5121V70.3271C115.831 72.5045 116.352 74.0191 117.393 74.8711C118.482 75.7231 120.186 76.1491 122.505 76.1491V77.6401C121.843 77.6401 121.298 77.6165 120.872 77.5691C116.044 77.4271 112.826 77.3561 111.216 77.3561C109.938 77.3561 107.027 77.4271 102.483 77.5691C102.105 77.6165 101.631 77.6401 101.063 77.6401V76.1491C102.767 76.1491 103.951 75.7941 104.613 75.0841C105.276 74.3268 105.607 72.9778 105.607 71.0371V48.6721C105.607 46.4948 105.276 44.9091 104.613 43.9151C103.951 42.9211 102.767 42.4241 101.063 42.4241V40.9331C102.578 41.0751 104.045 41.1461 105.465 41.1461C109.678 41.1461 113.133 40.8148 115.831 40.1521V46.7551C116.731 44.7198 118.032 43.0868 119.736 41.8561C121.44 40.5781 123.357 39.9391 125.487 39.9391ZM167.57 39.9391C173.013 39.9391 177.273 41.5011 180.35 44.6251C183.427 47.7018 184.965 52.6008 184.965 59.3221C184.965 66.0435 183.427 70.9425 180.35 74.0191C177.273 77.0958 173.013 78.6341 167.57 78.6341C162.174 78.6341 157.914 77.0958 154.79 74.0191C151.713 70.9425 150.175 66.0435 150.175 59.3221C150.175 52.6008 151.713 47.7018 154.79 44.6251C157.914 41.5011 162.174 39.9391 167.57 39.9391ZM167.57 41.3591C165.535 41.3591 163.902 42.8501 162.671 45.8321C161.488 48.7668 160.896 53.2635 160.896 59.3221C160.896 65.3808 161.488 69.8775 162.671 72.8121C163.902 75.7468 165.535 77.2141 167.57 77.2141C169.653 77.2141 171.286 75.7705 172.469 72.8831C173.652 69.9485 174.244 65.4281 174.244 59.3221C174.244 53.2161 173.629 48.6958 172.398 45.7611C171.215 42.8265 169.605 41.3591 167.57 41.3591ZM239.026 24.4611C239.736 25.0291 240.304 25.7865 240.73 26.7331C241.204 27.6325 241.44 28.6501 241.44 29.7861C241.44 31.1115 240.967 32.2711 240.02 33.2651C239.074 34.2118 237.867 34.6851 236.399 34.6851C234.79 34.6851 233.488 34.2355 232.494 33.3361C231.5 32.4368 231.003 31.2061 231.003 29.6441C231.003 28.4135 231.358 27.3248 232.068 26.3781C232.778 25.4315 233.82 24.7688 235.192 24.3901C235.05 24.1061 234.743 23.8695 234.269 23.6801C233.843 23.4908 233.299 23.3961 232.636 23.3961C230.838 23.3961 229.56 24.0115 228.802 25.2421C228.282 25.9521 227.927 26.9935 227.737 28.3661C227.548 29.7388 227.453 31.7978 227.453 34.5431V41.0041H235.05V42.4241H227.453V70.3271C227.453 72.5045 227.998 74.0191 229.086 74.8711C230.222 75.7231 231.903 76.1491 234.127 76.1491V77.6401L232.139 77.5691C226.885 77.4271 223.477 77.3561 221.915 77.3561C220.495 77.3561 217.419 77.4508 212.685 77.6401V76.1491C214.389 76.1491 215.573 75.7941 216.235 75.0841C216.898 74.3268 217.229 72.9778 217.229 71.0371V42.4241H204.378V71.0371C204.378 72.9778 204.71 74.3268 205.372 75.0841C206.035 75.7941 207.218 76.1491 208.922 76.1491V77.6401L207.36 77.5691C203.242 77.4271 200.639 77.3561 199.55 77.3561C197.941 77.3561 194.486 77.4508 189.184 77.6401V76.1491C191.03 76.1491 192.308 75.7941 193.018 75.0841C193.776 74.3268 194.154 72.9778 194.154 71.0371V42.4241H188.9V41.0041H194.154C194.154 38.4481 194.533 36.1288 195.29 34.0461C196.095 31.9635 197.231 30.2595 198.698 28.9341C200.071 27.7035 201.751 26.7331 203.739 26.0231C205.727 25.3131 207.905 24.9581 210.271 24.9581C212.165 24.9581 213.892 25.2658 215.454 25.8811C217.064 26.4965 218.389 27.3958 219.43 28.5791C220.046 27.4905 220.803 26.5201 221.702 25.6681C222.744 24.6268 224.14 23.7748 225.891 23.1121C227.643 22.4495 229.489 22.1181 231.429 22.1181C234.364 22.1181 236.896 22.8991 239.026 24.4611ZM217.229 41.0041C217.229 38.4481 217.348 36.2945 217.584 34.5431C217.821 32.7918 218.2 31.2535 218.72 29.9281C217.916 28.8868 216.874 28.0585 215.596 27.4431C214.366 26.8278 212.969 26.5201 211.407 26.5201C208.993 26.5201 207.218 27.2775 206.082 28.7921C204.946 30.2595 204.378 32.6261 204.378 35.8921V41.0041H217.229ZM257.212 72.8121C261.093 72.8121 264.217 70.9188 266.584 67.1321L267.862 67.5581C266.915 70.6348 265.211 73.2618 262.75 75.4391C260.336 77.5691 257.306 78.6341 253.662 78.6341C248.644 78.6341 244.645 77.0485 241.663 73.8771C238.728 70.6585 237.261 65.9251 237.261 59.6771C237.261 53.2871 238.846 48.4118 242.018 45.0511C245.189 41.6431 249.402 39.9391 254.656 39.9391C263.554 39.9391 268.004 45.1931 268.004 55.7011H248.053C248.005 56.4111 247.982 57.5235 247.982 59.0381C247.982 62.1621 248.408 64.7655 249.26 66.8481C250.159 68.9308 251.295 70.4455 252.668 71.3921C254.088 72.3388 255.602 72.8121 257.212 72.8121ZM254.23 41.4301C252.526 41.4301 251.106 42.4951 249.97 44.6251C248.881 46.7078 248.195 49.9501 247.911 54.3521H259.058C259.152 50.6128 258.774 47.5361 257.922 45.1221C257.117 42.6608 255.886 41.4301 254.23 41.4301ZM296.123 39.9391C298.253 39.9391 299.862 40.5781 300.951 41.8561C302.04 43.1341 302.584 44.6725 302.584 46.4711C302.584 48.2225 302.063 49.6661 301.022 50.8021C300.028 51.8908 298.703 52.4351 297.046 52.4351C295.437 52.4351 294.159 52.0328 293.212 51.2281C292.265 50.3761 291.792 49.2638 291.792 47.8911C291.792 45.6191 292.833 43.7731 294.916 42.3531C294.727 42.3058 294.443 42.2821 294.064 42.2821C293.591 42.2821 293.212 42.3295 292.928 42.4241C291.129 42.7081 289.591 43.7968 288.313 45.6901C287.082 47.5835 286.467 49.5241 286.467 51.5121V70.3271C286.467 72.5045 286.988 74.0191 288.029 74.8711C289.118 75.7231 290.822 76.1491 293.141 76.1491V77.6401C292.478 77.6401 291.934 77.6165 291.508 77.5691C286.68 77.4271 283.461 77.3561 281.852 77.3561C280.574 77.3561 277.663 77.4271 273.119 77.5691C272.74 77.6165 272.267 77.6401 271.699 77.6401V76.1491C273.403 76.1491 274.586 75.7941 275.249 75.0841C275.912 74.3268 276.243 72.9778 276.243 71.0371V48.6721C276.243 46.4948 275.912 44.9091 275.249 43.9151C274.586 42.9211 273.403 42.4241 271.699 42.4241V40.9331C273.214 41.0751 274.681 41.1461 276.101 41.1461C280.314 41.1461 283.769 40.8148 286.467 40.1521V46.7551C287.366 44.7198 288.668 43.0868 290.372 41.8561C292.076 40.5781 293.993 39.9391 296.123 39.9391ZM314.072 22.6151C316.06 22.6151 317.622 23.1121 318.758 24.1061C319.941 25.0528 320.533 26.3781 320.533 28.0821C320.533 29.7861 319.941 31.1351 318.758 32.1291C317.622 33.0758 316.06 33.5491 314.072 33.5491C312.084 33.5491 310.498 33.0758 309.315 32.1291C308.179 31.1351 307.611 29.7861 307.611 28.0821C307.611 26.3781 308.179 25.0528 309.315 24.1061C310.498 23.1121 312.084 22.6151 314.072 22.6151ZM319.61 71.0371C319.61 72.9778 319.941 74.3268 320.604 75.0841C321.314 75.7941 322.497 76.1491 324.154 76.1491V77.6401C319.42 77.4508 316.273 77.3561 314.711 77.3561C313.243 77.3561 309.954 77.4508 304.842 77.6401V76.1491C306.546 76.1491 307.729 75.7941 308.392 75.0841C309.054 74.3268 309.386 72.9778 309.386 71.0371V48.6721C309.386 46.4948 309.054 44.9091 308.392 43.9151C307.729 42.9211 306.546 42.4241 304.842 42.4241V40.9331C306.356 41.0751 307.824 41.1461 309.244 41.1461C313.456 41.1461 316.912 40.8148 319.61 40.1521V71.0371ZM353.649 39.9391C357.247 39.9391 359.85 40.8621 361.459 42.7081C362.264 43.6075 362.832 44.7671 363.163 46.1871C363.495 47.6071 363.66 49.5241 363.66 51.9381V71.0371C363.66 72.9778 363.992 74.3268 364.654 75.0841C365.364 75.7941 366.548 76.1491 368.204 76.1491V77.6401C363.471 77.4508 360.347 77.3561 358.832 77.3561C357.412 77.3561 354.336 77.4508 349.602 77.6401V76.1491C351.022 76.1491 352.016 75.7941 352.584 75.0841C353.152 74.3268 353.436 72.9778 353.436 71.0371V48.9561C353.436 47.0155 353.105 45.5481 352.442 44.5541C351.827 43.5601 350.691 43.0631 349.034 43.0631C347.094 43.0631 345.437 43.8678 344.064 45.4771C342.692 47.0391 342.005 48.9798 342.005 51.2991V71.0371C342.005 72.9778 342.289 74.3268 342.857 75.0841C343.425 75.7941 344.419 76.1491 345.839 76.1491V77.6401C341.485 77.4508 338.55 77.3561 337.035 77.3561C335.615 77.3561 332.349 77.4508 327.237 77.6401V76.1491C328.941 76.1491 330.125 75.7941 330.787 75.0841C331.45 74.3268 331.781 72.9778 331.781 71.0371V48.6721C331.781 46.4948 331.45 44.9091 330.787 43.9151C330.125 42.9211 328.941 42.4241 327.237 42.4241V40.9331C328.752 41.0751 330.219 41.1461 331.639 41.1461C335.852 41.1461 339.307 40.8148 342.005 40.1521V46.5421C344.135 42.1401 348.017 39.9391 353.649 39.9391ZM404.018 47.7491C403.071 47.7491 402.267 47.4415 401.604 46.8261C400.941 46.1635 400.61 45.2405 400.61 44.0571C400.61 42.9211 400.894 41.7615 401.462 40.5781C400.326 41.0515 399.379 41.5958 398.622 42.2111C397.912 42.7791 397.297 43.5128 396.776 44.4121C398.243 46.1635 398.977 48.4355 398.977 51.2281C398.977 54.9675 397.675 57.7838 395.072 59.6771C392.516 61.5705 389.108 62.5171 384.848 62.5171H383.57C381.629 63.6531 380.659 64.9075 380.659 66.2801C380.659 67.7948 381.606 68.5521 383.499 68.5521H391.238C395.403 68.5521 398.717 69.3331 401.178 70.8951C403.687 72.4098 404.941 74.7528 404.941 77.9241C404.941 80.3381 404.16 82.5155 402.598 84.4561C401.083 86.4441 398.764 88.0298 395.64 89.2131C392.516 90.3965 388.682 90.9881 384.138 90.9881C379.547 90.9881 375.855 90.3965 373.062 89.2131C370.317 88.0771 368.944 86.4205 368.944 84.2431C368.944 82.7758 369.607 81.4505 370.932 80.2671C372.257 79.1311 374.222 78.2318 376.825 77.5691L377.464 78.7051C375.76 80.1251 374.908 81.7581 374.908 83.6041C374.908 85.5921 375.807 87.1068 377.606 88.1481C379.405 89.2368 381.89 89.7811 385.061 89.7811C388.374 89.7811 391.049 89.1185 393.084 87.7931C395.167 86.4678 396.208 84.5981 396.208 82.1841C396.208 80.6221 395.616 79.3915 394.433 78.4921C393.297 77.5928 391.285 77.1431 388.398 77.1431H383.996C380.967 77.1431 378.6 76.6461 376.896 75.6521C375.192 74.6108 374.34 73.0488 374.34 70.9661C374.34 69.2148 374.955 67.6528 376.186 66.2801C377.417 64.9075 379.286 63.5821 381.795 62.3041C378.387 61.8781 375.689 60.7421 373.701 58.8961C371.713 57.0501 370.719 54.4941 370.719 51.2281C370.719 47.4888 371.997 44.6725 374.553 42.7791C377.156 40.8858 380.588 39.9391 384.848 39.9391C389.581 39.9391 393.202 41.0515 395.711 43.2761C396.61 41.9981 397.723 40.9805 399.048 40.2231C400.373 39.4658 401.722 39.0871 403.095 39.0871C404.515 39.0871 405.627 39.5131 406.432 40.3651C407.284 41.1698 407.71 42.2348 407.71 43.5601C407.71 44.8855 407.331 45.9268 406.574 46.6841C405.864 47.3941 405.012 47.7491 404.018 47.7491ZM384.848 61.2391C386.173 61.2391 387.167 60.4818 387.83 58.9671C388.54 57.4525 388.895 54.8728 388.895 51.2281C388.895 47.5835 388.54 45.0038 387.83 43.4891C387.167 41.9745 386.173 41.2171 384.848 41.2171C383.523 41.2171 382.505 41.9745 381.795 43.4891C381.132 45.0038 380.801 47.5835 380.801 51.2281C380.801 54.8728 381.132 57.4525 381.795 58.9671C382.505 60.4818 383.523 61.2391 384.848 61.2391Z" fill="white"/>
<path d="M38.915 106.831C40.6137 106.831 41.9694 106.994 42.982 107.321C43.9947 107.648 45.0237 108.121 46.069 108.742C46.4284 108.938 46.7387 109.101 47 109.232C47.294 109.363 47.539 109.428 47.735 109.428C48.029 109.428 48.2577 109.265 48.421 108.938C48.5844 108.579 48.715 108.023 48.813 107.272H49.94C49.7767 109.461 49.695 113.185 49.695 118.444H48.568C48.4374 116.68 48.029 114.998 47.343 113.397C46.6897 111.796 45.7424 110.506 44.501 109.526C43.2924 108.513 41.8714 108.007 40.238 108.007C38.6374 108.007 37.3307 108.464 36.318 109.379C35.338 110.261 34.848 111.47 34.848 113.005C34.848 114.148 35.093 115.145 35.583 115.994C36.073 116.843 36.759 117.627 37.641 118.346C38.523 119.032 39.8787 119.979 41.708 121.188L43.276 122.266C45.2034 123.54 46.7224 124.651 47.833 125.598C48.9437 126.545 49.842 127.656 50.528 128.93C51.2467 130.171 51.606 131.625 51.606 133.291C51.606 135.382 51.067 137.146 49.989 138.583C48.911 139.988 47.441 141.049 45.579 141.768C43.7497 142.487 41.708 142.846 39.454 142.846C37.6247 142.846 36.1057 142.683 34.897 142.356C33.6884 142.029 32.5777 141.588 31.565 141.033C30.8464 140.576 30.291 140.347 29.899 140.347C29.605 140.347 29.3764 140.527 29.213 140.886C29.0497 141.213 28.919 141.752 28.821 142.503H27.694C27.8247 140.445 27.89 136.035 27.89 129.273H29.017C29.2457 132.932 30.0624 135.904 31.467 138.191C32.8717 140.445 35.0277 141.572 37.935 141.572C39.699 141.572 41.1527 141.098 42.296 140.151C43.4394 139.204 44.011 137.848 44.011 136.084C44.011 134.255 43.423 132.687 42.247 131.38C41.071 130.073 39.209 128.603 36.661 126.97C34.701 125.696 33.133 124.585 31.957 123.638C30.781 122.691 29.8174 121.58 29.066 120.306C28.3147 118.999 27.939 117.497 27.939 115.798C27.939 113.838 28.429 112.188 29.409 110.849C30.4217 109.477 31.761 108.464 33.427 107.811C35.093 107.158 36.9224 106.831 38.915 106.831ZM64.7373 116.827H70.5193V117.807H64.7373V137.603C64.7373 138.583 64.9006 139.285 65.2273 139.71C65.5866 140.102 66.1419 140.298 66.8933 140.298C68.2979 140.298 69.4086 139.318 70.2253 137.358L71.0583 137.799C69.8169 141.164 67.5793 142.846 64.3453 142.846C62.1893 142.846 60.5559 142.291 59.4453 141.18C58.7593 140.494 58.2856 139.645 58.0243 138.632C57.7956 137.587 57.6813 136.166 57.6813 134.369V117.807H53.5653V116.827H57.6813V110.359C60.3926 110.359 62.7446 109.836 64.7373 108.791V116.827ZM88.8728 116.141C90.3428 116.141 91.4535 116.582 92.2048 117.464C92.9562 118.346 93.3318 119.408 93.3318 120.649C93.3318 121.858 92.9725 122.854 92.2538 123.638C91.5678 124.389 90.6532 124.765 89.5098 124.765C88.3992 124.765 87.5172 124.487 86.8638 123.932C86.2105 123.344 85.8838 122.576 85.8838 121.629C85.8838 120.061 86.6025 118.787 88.0398 117.807C87.9092 117.774 87.7132 117.758 87.4518 117.758C87.1252 117.758 86.8638 117.791 86.6678 117.856C85.4265 118.052 84.3648 118.803 83.4828 120.11C82.6335 121.417 82.2088 122.756 82.2088 124.128V137.113C82.2088 138.616 82.5682 139.661 83.2868 140.249C84.0382 140.837 85.2142 141.131 86.8148 141.131V142.16C86.3575 142.16 85.9818 142.144 85.6878 142.111C82.3558 142.013 80.1345 141.964 79.0238 141.964C78.1418 141.964 76.1328 142.013 72.9968 142.111C72.7355 142.144 72.4088 142.16 72.0168 142.16V141.131C73.1928 141.131 74.0095 140.886 74.4668 140.396C74.9242 139.873 75.1528 138.942 75.1528 137.603V122.168C75.1528 120.665 74.9242 119.571 74.4668 118.885C74.0095 118.199 73.1928 117.856 72.0168 117.856V116.827C73.0622 116.925 74.0748 116.974 75.0548 116.974C77.9622 116.974 80.3468 116.745 82.2088 116.288V120.845C82.8295 119.44 83.7278 118.313 84.9038 117.464C86.0798 116.582 87.4028 116.141 88.8728 116.141ZM108.626 138.828C111.305 138.828 113.461 137.521 115.094 134.908L115.976 135.202C115.323 137.325 114.147 139.138 112.448 140.641C110.782 142.111 108.691 142.846 106.176 142.846C102.713 142.846 99.9529 141.752 97.8949 139.563C95.8696 137.342 94.8569 134.075 94.8569 129.763C94.8569 125.353 95.9513 121.988 98.1399 119.669C100.329 117.317 103.236 116.141 106.862 116.141C113.003 116.141 116.074 119.767 116.074 127.019H102.305C102.272 127.509 102.256 128.277 102.256 129.322C102.256 131.478 102.55 133.275 103.138 134.712C103.759 136.149 104.543 137.195 105.49 137.848C106.47 138.501 107.515 138.828 108.626 138.828ZM106.568 117.17C105.392 117.17 104.412 117.905 103.628 119.375C102.877 120.812 102.403 123.05 102.207 126.088H109.9C109.965 123.507 109.704 121.384 109.116 119.718C108.561 118.019 107.711 117.17 106.568 117.17ZM125.379 142.503C123.289 142.503 121.721 141.964 120.675 140.886C119.663 139.808 119.156 138.387 119.156 136.623C119.156 135.153 119.532 133.944 120.283 132.997C121.067 132.017 121.998 131.266 123.076 130.743C124.187 130.22 125.592 129.665 127.29 129.077C129.087 128.456 130.394 127.901 131.21 127.411C132.06 126.888 132.484 126.186 132.484 125.304V121.482C132.484 120.11 132.158 119.048 131.504 118.297C130.884 117.513 129.904 117.121 128.564 117.121C126.996 117.121 125.804 117.513 124.987 118.297C125.902 118.624 126.604 119.114 127.094 119.767C127.617 120.42 127.878 121.188 127.878 122.07C127.878 123.181 127.503 124.063 126.751 124.716C126 125.369 125.085 125.696 124.007 125.696C122.864 125.696 121.982 125.337 121.361 124.618C120.741 123.899 120.43 123.001 120.43 121.923C120.43 121.008 120.643 120.241 121.067 119.62C121.525 118.967 122.211 118.362 123.125 117.807C124.007 117.284 125.085 116.876 126.359 116.582C127.666 116.288 129.087 116.141 130.622 116.141C132.223 116.141 133.611 116.304 134.787 116.631C135.963 116.958 136.943 117.513 137.727 118.297C138.446 119.016 138.92 119.898 139.148 120.943C139.41 121.988 139.54 123.409 139.54 125.206V138.534C139.54 139.318 139.606 139.873 139.736 140.2C139.9 140.527 140.194 140.69 140.618 140.69C141.108 140.69 141.696 140.412 142.382 139.857L142.872 140.69C141.402 141.899 139.606 142.503 137.482 142.503C135.686 142.503 134.428 142.144 133.709 141.425C132.991 140.706 132.615 139.743 132.582 138.534C130.949 141.18 128.548 142.503 125.379 142.503ZM129.152 139.367C130.426 139.367 131.537 138.697 132.484 137.358V127.313C132.092 127.966 131.259 128.685 129.985 129.469C128.711 130.286 127.748 131.102 127.094 131.919C126.441 132.736 126.114 133.912 126.114 135.447C126.114 136.786 126.392 137.783 126.947 138.436C127.503 139.057 128.238 139.367 129.152 139.367ZM183.669 137.603C183.669 138.942 183.897 139.873 184.355 140.396C184.845 140.886 185.661 141.131 186.805 141.131V142.16C183.538 142.029 181.382 141.964 180.337 141.964C179.422 141.964 177.397 142.029 174.261 142.16V141.131C175.143 141.131 175.747 140.886 176.074 140.396C176.433 139.906 176.613 138.975 176.613 137.603V122.364C176.613 120.992 176.4 119.979 175.976 119.326C175.584 118.64 174.816 118.297 173.673 118.297C172.464 118.297 171.402 118.803 170.488 119.816C169.606 120.829 169.083 122.07 168.92 123.54V124.422V137.603C168.92 138.942 169.116 139.873 169.508 140.396C169.932 140.886 170.684 141.131 171.762 141.131V142.16C168.626 142.029 166.568 141.964 165.588 141.964C164.673 141.964 162.648 142.029 159.512 142.16V141.131C160.394 141.131 160.998 140.886 161.325 140.396C161.684 139.873 161.864 138.942 161.864 137.603V122.364C161.864 120.992 161.684 119.979 161.325 119.326C160.965 118.64 160.263 118.297 159.218 118.297C157.911 118.297 156.784 118.852 155.837 119.963C154.922 121.041 154.465 122.38 154.465 123.981V137.603C154.465 138.942 154.628 139.873 154.955 140.396C155.314 140.886 155.935 141.131 156.817 141.131V142.16C153.942 142.029 152.015 141.964 151.035 141.964C150.055 141.964 147.801 142.029 144.273 142.16V141.131C145.449 141.131 146.265 140.886 146.723 140.396C147.18 139.873 147.409 138.942 147.409 137.603V122.168C147.409 120.665 147.18 119.571 146.723 118.885C146.265 118.199 145.449 117.856 144.273 117.856V116.827C145.318 116.925 146.331 116.974 147.311 116.974C150.218 116.974 152.603 116.745 154.465 116.288V120.698C155.902 117.66 158.434 116.141 162.06 116.141C164.542 116.141 166.339 116.778 167.45 118.052C168.07 118.705 168.479 119.685 168.675 120.992C169.524 119.228 170.635 117.987 172.007 117.268C173.379 116.517 174.979 116.141 176.809 116.141C179.291 116.141 181.088 116.778 182.199 118.052C182.721 118.64 183.097 119.44 183.326 120.453C183.554 121.466 183.669 122.789 183.669 124.422V137.603ZM198.627 137.603C198.627 138.942 198.856 139.873 199.313 140.396C199.77 140.886 200.587 141.131 201.763 141.131V142.16C198.366 142.029 196.177 141.964 195.197 141.964C194.086 141.964 191.832 142.029 188.435 142.16V141.131C189.578 141.131 190.379 140.886 190.836 140.396C191.326 139.873 191.571 138.942 191.571 137.603V109.673C191.571 108.17 191.326 107.076 190.836 106.39C190.379 105.704 189.578 105.361 188.435 105.361V104.332C189.48 104.43 190.493 104.479 191.473 104.479C194.315 104.479 196.7 104.25 198.627 103.793V137.603ZM210.218 104.185C211.59 104.185 212.668 104.528 213.452 105.214C214.269 105.867 214.677 106.782 214.677 107.958C214.677 109.134 214.269 110.065 213.452 110.751C212.668 111.404 211.59 111.731 210.218 111.731C208.846 111.731 207.752 111.404 206.935 110.751C206.151 110.065 205.759 109.134 205.759 107.958C205.759 106.782 206.151 105.867 206.935 105.214C207.752 104.528 208.846 104.185 210.218 104.185ZM214.04 137.603C214.04 138.942 214.269 139.873 214.726 140.396C215.216 140.886 216.033 141.131 217.176 141.131V142.16C213.909 142.029 211.737 141.964 210.659 141.964C209.646 141.964 207.376 142.029 203.848 142.16V141.131C205.024 141.131 205.841 140.886 206.298 140.396C206.755 139.873 206.984 138.942 206.984 137.603V122.168C206.984 120.665 206.755 119.571 206.298 118.885C205.841 118.199 205.024 117.856 203.848 117.856V116.827C204.893 116.925 205.906 116.974 206.886 116.974C209.793 116.974 212.178 116.745 214.04 116.288V137.603ZM237.532 116.141C240.015 116.141 241.811 116.778 242.922 118.052C243.477 118.673 243.869 119.473 244.098 120.453C244.327 121.433 244.441 122.756 244.441 124.422V137.603C244.441 138.942 244.67 139.873 245.127 140.396C245.617 140.886 246.434 141.131 247.577 141.131V142.16C244.31 142.029 242.154 141.964 241.109 141.964C240.129 141.964 238.006 142.029 234.739 142.16V141.131C235.719 141.131 236.405 140.886 236.797 140.396C237.189 139.873 237.385 138.942 237.385 137.603V122.364C237.385 121.025 237.156 120.012 236.699 119.326C236.274 118.64 235.49 118.297 234.347 118.297C233.008 118.297 231.864 118.852 230.917 119.963C229.97 121.041 229.496 122.38 229.496 123.981V137.603C229.496 138.942 229.692 139.873 230.084 140.396C230.476 140.886 231.162 141.131 232.142 141.131V142.16C229.137 142.029 227.111 141.964 226.066 141.964C225.086 141.964 222.832 142.029 219.304 142.16V141.131C220.48 141.131 221.297 140.886 221.754 140.396C222.211 139.873 222.44 138.942 222.44 137.603V122.168C222.44 120.665 222.211 119.571 221.754 118.885C221.297 118.199 220.48 117.856 219.304 117.856V116.827C220.349 116.925 221.362 116.974 222.342 116.974C225.249 116.974 227.634 116.745 229.496 116.288V120.698C230.966 117.66 233.645 116.141 237.532 116.141ZM263.809 138.828C266.487 138.828 268.643 137.521 270.277 134.908L271.159 135.202C270.505 137.325 269.329 139.138 267.631 140.641C265.965 142.111 263.874 142.846 261.359 142.846C257.896 142.846 255.136 141.752 253.078 139.563C251.052 137.342 250.04 134.075 250.04 129.763C250.04 125.353 251.134 121.988 253.323 119.669C255.511 117.317 258.419 116.141 262.045 116.141C268.186 116.141 271.257 119.767 271.257 127.019H257.488C257.455 127.509 257.439 128.277 257.439 129.322C257.439 131.478 257.733 133.275 258.321 134.712C258.941 136.149 259.725 137.195 260.673 137.848C261.653 138.501 262.698 138.828 263.809 138.828ZM261.751 117.17C260.575 117.17 259.595 117.905 258.811 119.375C258.059 120.812 257.586 123.05 257.39 126.088H265.083C265.148 123.507 264.887 121.384 264.299 119.718C263.743 118.019 262.894 117.17 261.751 117.17ZM304.283 116.974C305.916 116.974 307.174 116.925 308.056 116.827V117.807C307.37 118.003 306.749 118.428 306.194 119.081C305.671 119.702 305.165 120.682 304.675 122.021L295.904 146.668C295.251 148.367 294.532 149.526 293.748 150.147C292.801 150.964 291.38 151.372 289.485 151.372C288.113 151.372 286.872 151.029 285.761 150.343C284.683 149.69 284.144 148.726 284.144 147.452C284.144 146.439 284.503 145.623 285.222 145.002C285.941 144.414 286.888 144.12 288.064 144.12C289.175 144.12 290.057 144.381 290.71 144.904C291.396 145.459 291.739 146.227 291.739 147.207C291.739 147.893 291.527 148.514 291.102 149.069C290.677 149.657 290.073 150.098 289.289 150.392C289.518 150.425 289.893 150.441 290.416 150.441C292.441 150.441 293.928 149.151 294.875 146.57L295.659 144.218L285.271 120.6C284.748 119.489 284.242 118.754 283.752 118.395C283.262 118.036 282.756 117.856 282.233 117.856V116.827C284.389 117.023 286.627 117.121 288.946 117.121C290.873 117.121 293.144 117.023 295.757 116.827V117.856C294.712 117.856 293.928 117.938 293.405 118.101C292.915 118.232 292.67 118.607 292.67 119.228C292.67 119.587 292.784 120.045 293.013 120.6L298.991 135.055L302.372 125.647C302.895 124.112 303.156 122.805 303.156 121.727C303.156 119.342 301.947 118.036 299.53 117.807V116.827C301.065 116.925 302.65 116.974 304.283 116.974ZM321.428 116.141C325.185 116.141 328.125 117.219 330.248 119.375C332.372 121.498 333.433 124.879 333.433 129.518C333.433 134.157 332.372 137.538 330.248 139.661C328.125 141.784 325.185 142.846 321.428 142.846C317.704 142.846 314.764 141.784 312.608 139.661C310.485 137.538 309.423 134.157 309.423 129.518C309.423 124.879 310.485 121.498 312.608 119.375C314.764 117.219 317.704 116.141 321.428 116.141ZM321.428 117.121C320.024 117.121 318.897 118.15 318.047 120.208C317.231 122.233 316.822 125.337 316.822 129.518C316.822 133.699 317.231 136.803 318.047 138.828C318.897 140.853 320.024 141.866 321.428 141.866C322.866 141.866 323.993 140.87 324.809 138.877C325.626 136.852 326.034 133.732 326.034 129.518C326.034 125.304 325.61 122.184 324.76 120.159C323.944 118.134 322.833 117.121 321.428 117.121ZM360.894 136.819C360.894 138.322 361.123 139.416 361.58 140.102C362.07 140.788 362.887 141.131 364.03 141.131V142.16C363.018 142.062 362.005 142.013 360.992 142.013C358.15 142.013 355.766 142.242 353.838 142.699V138.289C352.336 141.327 349.706 142.846 345.949 142.846C343.499 142.846 341.719 142.209 340.608 140.935C340.086 140.314 339.694 139.514 339.432 138.534C339.204 137.521 339.089 136.198 339.089 134.565V122.168C339.089 120.665 338.844 119.571 338.354 118.885C337.897 118.199 337.097 117.856 335.953 117.856V116.827C336.966 116.925 337.979 116.974 338.991 116.974C341.833 116.974 344.218 116.745 346.145 116.288V136.574C346.145 137.946 346.341 138.975 346.733 139.661C347.158 140.347 347.942 140.69 349.085 140.69C350.392 140.69 351.503 140.151 352.417 139.073C353.365 137.962 353.838 136.607 353.838 135.006V122.168C353.838 120.665 353.593 119.571 353.103 118.885C352.646 118.199 351.846 117.856 350.702 117.856V116.827C351.748 116.925 352.76 116.974 353.74 116.974C356.582 116.974 358.967 116.745 360.894 116.288V136.819ZM383.064 116.141C384.534 116.141 385.645 116.582 386.396 117.464C387.148 118.346 387.523 119.408 387.523 120.649C387.523 121.858 387.164 122.854 386.445 123.638C385.759 124.389 384.845 124.765 383.701 124.765C382.591 124.765 381.709 124.487 381.055 123.932C380.402 123.344 380.075 122.576 380.075 121.629C380.075 120.061 380.794 118.787 382.231 117.807C382.101 117.774 381.905 117.758 381.643 117.758C381.317 117.758 381.055 117.791 380.859 117.856C379.618 118.052 378.556 118.803 377.674 120.11C376.825 121.417 376.4 122.756 376.4 124.128V137.113C376.4 138.616 376.76 139.661 377.478 140.249C378.23 140.837 379.406 141.131 381.006 141.131V142.16C380.549 142.16 380.173 142.144 379.879 142.111C376.547 142.013 374.326 141.964 373.215 141.964C372.333 141.964 370.324 142.013 367.188 142.111C366.927 142.144 366.6 142.16 366.208 142.16V141.131C367.384 141.131 368.201 140.886 368.658 140.396C369.116 139.873 369.344 138.942 369.344 137.603V122.168C369.344 120.665 369.116 119.571 368.658 118.885C368.201 118.199 367.384 117.856 366.208 117.856V116.827C367.254 116.925 368.266 116.974 369.246 116.974C372.154 116.974 374.538 116.745 376.4 116.288V120.845C377.021 119.44 377.919 118.313 379.095 117.464C380.271 116.582 381.594 116.141 383.064 116.141ZM405.835 104.185C407.207 104.185 408.285 104.528 409.069 105.214C409.886 105.867 410.294 106.782 410.294 107.958C410.294 109.134 409.886 110.065 409.069 110.751C408.285 111.404 407.207 111.731 405.835 111.731C404.463 111.731 403.369 111.404 402.552 110.751C401.768 110.065 401.376 109.134 401.376 107.958C401.376 106.782 401.768 105.867 402.552 105.214C403.369 104.528 404.463 104.185 405.835 104.185ZM409.657 137.603C409.657 138.942 409.886 139.873 410.343 140.396C410.833 140.886 411.65 141.131 412.793 141.131V142.16C409.526 142.029 407.354 141.964 406.276 141.964C405.263 141.964 402.993 142.029 399.465 142.16V141.131C400.641 141.131 401.458 140.886 401.915 140.396C402.372 139.873 402.601 138.942 402.601 137.603V122.168C402.601 120.665 402.372 119.571 401.915 118.885C401.458 118.199 400.641 117.856 399.465 117.856V116.827C400.51 116.925 401.523 116.974 402.503 116.974C405.41 116.974 407.795 116.745 409.657 116.288V137.603ZM433.149 116.141C435.632 116.141 437.428 116.778 438.539 118.052C439.094 118.673 439.486 119.473 439.715 120.453C439.944 121.433 440.058 122.756 440.058 124.422V137.603C440.058 138.942 440.287 139.873 440.744 140.396C441.234 140.886 442.051 141.131 443.194 141.131V142.16C439.927 142.029 437.771 141.964 436.726 141.964C435.746 141.964 433.623 142.029 430.356 142.16V141.131C431.336 141.131 432.022 140.886 432.414 140.396C432.806 139.873 433.002 138.942 433.002 137.603V122.364C433.002 121.025 432.773 120.012 432.316 119.326C431.891 118.64 431.107 118.297 429.964 118.297C428.625 118.297 427.481 118.852 426.534 119.963C425.587 121.041 425.113 122.38 425.113 123.981V137.603C425.113 138.942 425.309 139.873 425.701 140.396C426.093 140.886 426.779 141.131 427.759 141.131V142.16C424.754 142.029 422.728 141.964 421.683 141.964C420.703 141.964 418.449 142.029 414.921 142.16V141.131C416.097 141.131 416.914 140.886 417.371 140.396C417.828 139.873 418.057 138.942 418.057 137.603V122.168C418.057 120.665 417.828 119.571 417.371 118.885C416.914 118.199 416.097 117.856 414.921 117.856V116.827C415.966 116.925 416.979 116.974 417.959 116.974C420.866 116.974 423.251 116.745 425.113 116.288V120.698C426.583 117.66 429.262 116.141 433.149 116.141ZM454.722 116.141C455.963 116.141 457.106 116.304 458.152 116.631C459.197 116.925 459.997 117.268 460.553 117.66C460.879 117.889 461.173 118.003 461.435 118.003C461.729 118.003 461.974 117.856 462.17 117.562C462.398 117.235 462.545 116.778 462.611 116.19H463.64C463.509 117.856 463.444 120.731 463.444 124.814H462.415C462.121 122.658 461.467 120.861 460.455 119.424C459.475 117.954 458.037 117.219 456.143 117.219C455.163 117.219 454.346 117.497 453.693 118.052C453.072 118.607 452.762 119.375 452.762 120.355C452.762 121.466 453.137 122.429 453.889 123.246C454.64 124.03 455.816 124.994 457.417 126.137L458.838 127.166C460.83 128.669 462.3 130.008 463.248 131.184C464.195 132.36 464.669 133.83 464.669 135.594C464.669 137.031 464.244 138.305 463.395 139.416C462.578 140.527 461.467 141.376 460.063 141.964C458.658 142.552 457.106 142.846 455.408 142.846C453.611 142.846 452.076 142.503 450.802 141.817C449.756 141.294 449.005 140.951 448.548 140.788C448.221 140.69 447.927 140.804 447.666 141.131C447.437 141.425 447.257 141.882 447.127 142.503H446.098C446.228 140.641 446.294 137.374 446.294 132.703H447.323C447.976 138.714 450.181 141.719 453.938 141.719C454.885 141.719 455.685 141.441 456.339 140.886C457.025 140.298 457.368 139.416 457.368 138.24C457.368 137.325 457.155 136.509 456.731 135.79C456.339 135.071 455.832 134.434 455.212 133.879C454.591 133.324 453.66 132.556 452.419 131.576C450.949 130.4 449.822 129.453 449.038 128.734C448.286 128.015 447.633 127.166 447.078 126.186C446.555 125.206 446.294 124.112 446.294 122.903C446.294 120.812 447.11 119.163 448.744 117.954C450.377 116.745 452.37 116.141 454.722 116.141ZM474.024 104.185C475.396 104.185 476.474 104.528 477.258 105.214C478.074 105.867 478.483 106.782 478.483 107.958C478.483 109.134 478.074 110.065 477.258 110.751C476.474 111.404 475.396 111.731 474.024 111.731C472.652 111.731 471.557 111.404 470.741 110.751C469.957 110.065 469.565 109.134 469.565 107.958C469.565 106.782 469.957 105.867 470.741 105.214C471.557 104.528 472.652 104.185 474.024 104.185ZM477.846 137.603C477.846 138.942 478.074 139.873 478.532 140.396C479.022 140.886 479.838 141.131 480.982 141.131V142.16C477.715 142.029 475.543 141.964 474.465 141.964C473.452 141.964 471.182 142.029 467.654 142.16V141.131C468.83 141.131 469.646 140.886 470.104 140.396C470.561 139.873 470.79 138.942 470.79 137.603V122.168C470.79 120.665 470.561 119.571 470.104 118.885C469.646 118.199 468.83 117.856 467.654 117.856V116.827C468.699 116.925 469.712 116.974 470.692 116.974C473.599 116.974 475.984 116.745 477.846 116.288V137.603ZM506.336 121.531C505.682 121.531 505.127 121.319 504.67 120.894C504.212 120.437 503.984 119.8 503.984 118.983C503.984 118.199 504.18 117.399 504.572 116.582C503.788 116.909 503.134 117.284 502.612 117.709C502.122 118.101 501.697 118.607 501.338 119.228C502.35 120.437 502.857 122.005 502.857 123.932C502.857 126.513 501.958 128.456 500.162 129.763C498.398 131.07 496.046 131.723 493.106 131.723H492.224C490.884 132.507 490.215 133.373 490.215 134.32C490.215 135.365 490.868 135.888 492.175 135.888H497.516C500.39 135.888 502.677 136.427 504.376 137.505C506.107 138.55 506.973 140.167 506.973 142.356C506.973 144.022 506.434 145.525 505.356 146.864C504.31 148.236 502.71 149.33 500.554 150.147C498.398 150.964 495.752 151.372 492.616 151.372C489.447 151.372 486.899 150.964 484.972 150.147C483.077 149.363 482.13 148.22 482.13 146.717C482.13 145.704 482.587 144.79 483.502 143.973C484.416 143.189 485.772 142.568 487.569 142.111L488.01 142.895C486.834 143.875 486.246 145.002 486.246 146.276C486.246 147.648 486.866 148.693 488.108 149.412C489.349 150.163 491.064 150.539 493.253 150.539C495.539 150.539 497.385 150.082 498.79 149.167C500.227 148.252 500.946 146.962 500.946 145.296C500.946 144.218 500.537 143.369 499.721 142.748C498.937 142.127 497.548 141.817 495.556 141.817H492.518C490.427 141.817 488.794 141.474 487.618 140.788C486.442 140.069 485.854 138.991 485.854 137.554C485.854 136.345 486.278 135.267 487.128 134.32C487.977 133.373 489.267 132.458 490.999 131.576C488.647 131.282 486.785 130.498 485.413 129.224C484.041 127.95 483.355 126.186 483.355 123.932C483.355 121.351 484.237 119.408 486.001 118.101C487.797 116.794 490.166 116.141 493.106 116.141C496.372 116.141 498.871 116.909 500.603 118.444C501.223 117.562 501.991 116.86 502.906 116.337C503.82 115.814 504.751 115.553 505.699 115.553C506.679 115.553 507.446 115.847 508.002 116.435C508.59 116.99 508.884 117.725 508.884 118.64C508.884 119.555 508.622 120.273 508.1 120.796C507.61 121.286 507.022 121.531 506.336 121.531ZM493.106 130.841C494.02 130.841 494.706 130.318 495.164 129.273C495.654 128.228 495.899 126.447 495.899 123.932C495.899 121.417 495.654 119.636 495.164 118.591C494.706 117.546 494.02 117.023 493.106 117.023C492.191 117.023 491.489 117.546 490.999 118.591C490.541 119.636 490.313 121.417 490.313 123.932C490.313 126.447 490.541 128.228 490.999 129.273C491.489 130.318 492.191 130.841 493.106 130.841ZM520.141 120.698C521.611 117.66 524.273 116.141 528.128 116.141C530.676 116.141 532.472 116.778 533.518 118.052C534.073 118.673 534.465 119.489 534.694 120.502C534.955 121.482 535.086 122.789 535.086 124.422V137.603C535.086 138.942 535.314 139.873 535.772 140.396C536.229 140.886 537.046 141.131 538.222 141.131V142.16C534.824 142.029 532.668 141.964 531.754 141.964C530.643 141.964 528.52 142.029 525.384 142.16V141.131C526.364 141.131 527.05 140.886 527.442 140.396C527.834 139.873 528.03 138.942 528.03 137.603V122.364C528.03 121.025 527.801 120.012 527.344 119.326C526.919 118.64 526.135 118.297 524.992 118.297C523.62 118.297 522.46 118.836 521.513 119.914C520.598 120.959 520.141 122.299 520.141 123.932V137.603C520.141 138.942 520.337 139.873 520.729 140.396C521.121 140.886 521.807 141.131 522.787 141.131V142.16C519.651 142.029 517.625 141.964 516.711 141.964C515.6 141.964 513.346 142.029 509.949 142.16V141.131C511.092 141.131 511.892 140.886 512.35 140.396C512.84 139.873 513.085 138.942 513.085 137.603V109.722C513.085 108.219 512.84 107.125 512.35 106.439C511.892 105.753 511.092 105.41 509.949 105.41V104.381C510.994 104.479 512.007 104.528 512.987 104.528C515.829 104.528 518.213 104.299 520.141 103.842V120.698ZM549.952 116.827H555.734V117.807H549.952V137.603C549.952 138.583 550.115 139.285 550.442 139.71C550.801 140.102 551.357 140.298 552.108 140.298C553.513 140.298 554.623 139.318 555.44 137.358L556.273 137.799C555.032 141.164 552.794 142.846 549.56 142.846C547.404 142.846 545.771 142.291 544.66 141.18C543.974 140.494 543.5 139.645 543.239 138.632C543.01 137.587 542.896 136.166 542.896 134.369V117.807H538.78V116.827H542.896V110.359C545.607 110.359 547.959 109.836 549.952 108.791V116.827ZM576.685 130.939H558.996V126.872H576.685V130.939ZM604.048 121.531C603.395 121.531 602.84 121.319 602.382 120.894C601.925 120.437 601.696 119.8 601.696 118.983C601.696 118.199 601.892 117.399 602.284 116.582C601.5 116.909 600.847 117.284 600.324 117.709C599.834 118.101 599.41 118.607 599.05 119.228C600.063 120.437 600.569 122.005 600.569 123.932C600.569 126.513 599.671 128.456 597.874 129.763C596.11 131.07 593.758 131.723 590.818 131.723H589.936C588.597 132.507 587.927 133.373 587.927 134.32C587.927 135.365 588.581 135.888 589.887 135.888H595.228C598.103 135.888 600.39 136.427 602.088 137.505C603.82 138.55 604.685 140.167 604.685 142.356C604.685 144.022 604.146 145.525 603.068 146.864C602.023 148.236 600.422 149.33 598.266 150.147C596.11 150.964 593.464 151.372 590.328 151.372C587.16 151.372 584.612 150.964 582.684 150.147C580.79 149.363 579.842 148.22 579.842 146.717C579.842 145.704 580.3 144.79 581.214 143.973C582.129 143.189 583.485 142.568 585.281 142.111L585.722 142.895C584.546 143.875 583.958 145.002 583.958 146.276C583.958 147.648 584.579 148.693 585.82 149.412C587.062 150.163 588.777 150.539 590.965 150.539C593.252 150.539 595.098 150.082 596.502 149.167C597.94 148.252 598.658 146.962 598.658 145.296C598.658 144.218 598.25 143.369 597.433 142.748C596.649 142.127 595.261 141.817 593.268 141.817H590.23C588.14 141.817 586.506 141.474 585.33 140.788C584.154 140.069 583.566 138.991 583.566 137.554C583.566 136.345 583.991 135.267 584.84 134.32C585.69 133.373 586.98 132.458 588.711 131.576C586.359 131.282 584.497 130.498 583.125 129.224C581.753 127.95 581.067 126.186 581.067 123.932C581.067 121.351 581.949 119.408 583.713 118.101C585.51 116.794 587.878 116.141 590.818 116.141C594.085 116.141 596.584 116.909 598.315 118.444C598.936 117.562 599.704 116.86 600.618 116.337C601.533 115.814 602.464 115.553 603.411 115.553C604.391 115.553 605.159 115.847 605.714 116.435C606.302 116.99 606.596 117.725 606.596 118.64C606.596 119.555 606.335 120.273 605.812 120.796C605.322 121.286 604.734 121.531 604.048 121.531ZM590.818 130.841C591.733 130.841 592.419 130.318 592.876 129.273C593.366 128.228 593.611 126.447 593.611 123.932C593.611 121.417 593.366 119.636 592.876 118.591C592.419 117.546 591.733 117.023 590.818 117.023C589.904 117.023 589.201 117.546 588.711 118.591C588.254 119.636 588.025 121.417 588.025 123.932C588.025 126.447 588.254 128.228 588.711 129.273C589.201 130.318 589.904 130.841 590.818 130.841ZM613.896 142.503C611.805 142.503 610.237 141.964 609.192 140.886C608.179 139.808 607.673 138.387 607.673 136.623C607.673 135.153 608.049 133.944 608.8 132.997C609.584 132.017 610.515 131.266 611.593 130.743C612.704 130.22 614.108 129.665 615.807 129.077C617.604 128.456 618.91 127.901 619.727 127.411C620.576 126.888 621.001 126.186 621.001 125.304V121.482C621.001 120.11 620.674 119.048 620.021 118.297C619.4 117.513 618.42 117.121 617.081 117.121C615.513 117.121 614.321 117.513 613.504 118.297C614.419 118.624 615.121 119.114 615.611 119.767C616.134 120.42 616.395 121.188 616.395 122.07C616.395 123.181 616.019 124.063 615.268 124.716C614.517 125.369 613.602 125.696 612.524 125.696C611.381 125.696 610.499 125.337 609.878 124.618C609.257 123.899 608.947 123.001 608.947 121.923C608.947 121.008 609.159 120.241 609.584 119.62C610.041 118.967 610.727 118.362 611.642 117.807C612.524 117.284 613.602 116.876 614.876 116.582C616.183 116.288 617.604 116.141 619.139 116.141C620.74 116.141 622.128 116.304 623.304 116.631C624.48 116.958 625.46 117.513 626.244 118.297C626.963 119.016 627.436 119.898 627.665 120.943C627.926 121.988 628.057 123.409 628.057 125.206V138.534C628.057 139.318 628.122 139.873 628.253 140.2C628.416 140.527 628.71 140.69 629.135 140.69C629.625 140.69 630.213 140.412 630.899 139.857L631.389 140.69C629.919 141.899 628.122 142.503 625.999 142.503C624.202 142.503 622.945 142.144 622.226 141.425C621.507 140.706 621.132 139.743 621.099 138.534C619.466 141.18 617.065 142.503 613.896 142.503ZM617.669 139.367C618.943 139.367 620.054 138.697 621.001 137.358V127.313C620.609 127.966 619.776 128.685 618.502 129.469C617.228 130.286 616.264 131.102 615.611 131.919C614.958 132.736 614.631 133.912 614.631 135.447C614.631 136.786 614.909 137.783 615.464 138.436C616.019 139.057 616.754 139.367 617.669 139.367ZM639.159 104.185C640.531 104.185 641.609 104.528 642.393 105.214C643.21 105.867 643.618 106.782 643.618 107.958C643.618 109.134 643.21 110.065 642.393 110.751C641.609 111.404 640.531 111.731 639.159 111.731C637.787 111.731 636.693 111.404 635.876 110.751C635.092 110.065 634.7 109.134 634.7 107.958C634.7 106.782 635.092 105.867 635.876 105.214C636.693 104.528 637.787 104.185 639.159 104.185ZM642.981 137.603C642.981 138.942 643.21 139.873 643.667 140.396C644.157 140.886 644.974 141.131 646.117 141.131V142.16C642.851 142.029 640.678 141.964 639.6 141.964C638.588 141.964 636.317 142.029 632.789 142.16V141.131C633.965 141.131 634.782 140.886 635.239 140.396C635.697 139.873 635.925 138.942 635.925 137.603V122.168C635.925 120.665 635.697 119.571 635.239 118.885C634.782 118.199 633.965 117.856 632.789 117.856V116.827C633.835 116.925 634.847 116.974 635.827 116.974C638.735 116.974 641.119 116.745 642.981 116.288V137.603ZM666.473 116.141C668.956 116.141 670.753 116.778 671.863 118.052C672.419 118.673 672.811 119.473 673.039 120.453C673.268 121.433 673.382 122.756 673.382 124.422V137.603C673.382 138.942 673.611 139.873 674.068 140.396C674.558 140.886 675.375 141.131 676.518 141.131V142.16C673.252 142.029 671.096 141.964 670.05 141.964C669.07 141.964 666.947 142.029 663.68 142.16V141.131C664.66 141.131 665.346 140.886 665.738 140.396C666.13 139.873 666.326 138.942 666.326 137.603V122.364C666.326 121.025 666.098 120.012 665.64 119.326C665.216 118.64 664.432 118.297 663.288 118.297C661.949 118.297 660.806 118.852 659.858 119.963C658.911 121.041 658.437 122.38 658.437 123.981V137.603C658.437 138.942 658.633 139.873 659.025 140.396C659.417 140.886 660.103 141.131 661.083 141.131V142.16C658.078 142.029 656.053 141.964 655.007 141.964C654.027 141.964 651.773 142.029 648.245 142.16V141.131C649.421 141.131 650.238 140.886 650.695 140.396C651.153 139.873 651.381 138.942 651.381 137.603V122.168C651.381 120.665 651.153 119.571 650.695 118.885C650.238 118.199 649.421 117.856 648.245 117.856V116.827C649.291 116.925 650.303 116.974 651.283 116.974C654.191 116.974 656.575 116.745 658.437 116.288V120.698C659.907 117.66 662.586 116.141 666.473 116.141ZM684.714 104.185C686.086 104.185 687.164 104.528 687.948 105.214C688.765 105.867 689.173 106.782 689.173 107.958C689.173 109.134 688.765 110.065 687.948 110.751C687.164 111.404 686.086 111.731 684.714 111.731C683.342 111.731 682.248 111.404 681.431 110.751C680.647 110.065 680.255 109.134 680.255 107.958C680.255 106.782 680.647 105.867 681.431 105.214C682.248 104.528 683.342 104.185 684.714 104.185ZM688.536 137.603C688.536 138.942 688.765 139.873 689.222 140.396C689.712 140.886 690.529 141.131 691.672 141.131V142.16C688.405 142.029 686.233 141.964 685.155 141.964C684.142 141.964 681.872 142.029 678.344 142.16V141.131C679.52 141.131 680.337 140.886 680.794 140.396C681.251 139.873 681.48 138.942 681.48 137.603V122.168C681.48 120.665 681.251 119.571 680.794 118.885C680.337 118.199 679.52 117.856 678.344 117.856V116.827C679.389 116.925 680.402 116.974 681.382 116.974C684.289 116.974 686.674 116.745 688.536 116.288V137.603ZM712.028 116.141C714.511 116.141 716.307 116.778 717.418 118.052C717.973 118.673 718.365 119.473 718.594 120.453C718.823 121.433 718.937 122.756 718.937 124.422V137.603C718.937 138.942 719.166 139.873 719.623 140.396C720.113 140.886 720.93 141.131 722.073 141.131V142.16C718.806 142.029 716.65 141.964 715.605 141.964C714.625 141.964 712.502 142.029 709.235 142.16V141.131C710.215 141.131 710.901 140.886 711.293 140.396C711.685 139.873 711.881 138.942 711.881 137.603V122.364C711.881 121.025 711.652 120.012 711.195 119.326C710.77 118.64 709.986 118.297 708.843 118.297C707.504 118.297 706.36 118.852 705.413 119.963C704.466 121.041 703.992 122.38 703.992 123.981V137.603C703.992 138.942 704.188 139.873 704.58 140.396C704.972 140.886 705.658 141.131 706.638 141.131V142.16C703.633 142.029 701.607 141.964 700.562 141.964C699.582 141.964 697.328 142.029 693.8 142.16V141.131C694.976 141.131 695.793 140.886 696.25 140.396C696.707 139.873 696.936 138.942 696.936 137.603V122.168C696.936 120.665 696.707 119.571 696.25 118.885C695.793 118.199 694.976 117.856 693.8 117.856V116.827C694.845 116.925 695.858 116.974 696.838 116.974C699.745 116.974 702.13 116.745 703.992 116.288V120.698C705.462 117.66 708.141 116.141 712.028 116.141ZM746.79 121.531C746.136 121.531 745.581 121.319 745.124 120.894C744.666 120.437 744.438 119.8 744.438 118.983C744.438 118.199 744.634 117.399 745.026 116.582C744.242 116.909 743.588 117.284 743.066 117.709C742.576 118.101 742.151 118.607 741.792 119.228C742.804 120.437 743.311 122.005 743.311 123.932C743.311 126.513 742.412 128.456 740.616 129.763C738.852 131.07 736.5 131.723 733.56 131.723H732.678C731.338 132.507 730.669 133.373 730.669 134.32C730.669 135.365 731.322 135.888 732.629 135.888H737.97C740.844 135.888 743.131 136.427 744.83 137.505C746.561 138.55 747.427 140.167 747.427 142.356C747.427 144.022 746.888 145.525 745.81 146.864C744.764 148.236 743.164 149.33 741.008 150.147C738.852 150.964 736.206 151.372 733.07 151.372C729.901 151.372 727.353 150.964 725.426 150.147C723.531 149.363 722.584 148.22 722.584 146.717C722.584 145.704 723.041 144.79 723.956 143.973C724.87 143.189 726.226 142.568 728.023 142.111L728.464 142.895C727.288 143.875 726.7 145.002 726.7 146.276C726.7 147.648 727.32 148.693 728.562 149.412C729.803 150.163 731.518 150.539 733.707 150.539C735.993 150.539 737.839 150.082 739.244 149.167C740.681 148.252 741.4 146.962 741.4 145.296C741.4 144.218 740.991 143.369 740.175 142.748C739.391 142.127 738.002 141.817 736.01 141.817H732.972C730.881 141.817 729.248 141.474 728.072 140.788C726.896 140.069 726.308 138.991 726.308 137.554C726.308 136.345 726.732 135.267 727.582 134.32C728.431 133.373 729.721 132.458 731.453 131.576C729.101 131.282 727.239 130.498 725.867 129.224C724.495 127.95 723.809 126.186 723.809 123.932C723.809 121.351 724.691 119.408 726.455 118.101C728.251 116.794 730.62 116.141 733.56 116.141C736.826 116.141 739.325 116.909 741.057 118.444C741.677 117.562 742.445 116.86 743.36 116.337C744.274 115.814 745.205 115.553 746.153 115.553C747.133 115.553 747.9 115.847 748.456 116.435C749.044 116.99 749.338 117.725 749.338 118.64C749.338 119.555 749.076 120.273 748.554 120.796C748.064 121.286 747.476 121.531 746.79 121.531ZM733.56 130.841C734.474 130.841 735.16 130.318 735.618 129.273C736.108 128.228 736.353 126.447 736.353 123.932C736.353 121.417 736.108 119.636 735.618 118.591C735.16 117.546 734.474 117.023 733.56 117.023C732.645 117.023 731.943 117.546 731.453 118.591C730.995 119.636 730.767 121.417 730.767 123.932C730.767 126.447 730.995 128.228 731.453 129.273C731.943 130.318 732.645 130.841 733.56 130.841ZM779.675 116.141C781.374 116.141 782.877 116.598 784.183 117.513C785.523 118.428 786.568 119.8 787.319 121.629C788.071 123.458 788.446 125.696 788.446 128.342C788.446 133.013 787.417 136.607 785.359 139.122C783.334 141.605 780.574 142.846 777.078 142.846C776.098 142.846 775.167 142.715 774.285 142.454C773.436 142.193 772.701 141.801 772.08 141.278V146.178C772.08 147.615 772.44 148.612 773.158 149.167C773.877 149.722 774.988 150 776.49 150V151.029L775.167 150.98C771.541 150.882 769.238 150.833 768.258 150.833C767.278 150.833 765.22 150.898 762.084 151.029V150C763.162 150 763.914 149.755 764.338 149.265C764.796 148.808 765.024 147.942 765.024 146.668V122.168C765.024 120.665 764.779 119.571 764.289 118.885C763.832 118.199 763.032 117.856 761.888 117.856V116.827C762.934 116.925 763.946 116.974 764.926 116.974C767.768 116.974 770.153 116.745 772.08 116.288V120.796C772.766 119.293 773.763 118.15 775.069 117.366C776.376 116.549 777.911 116.141 779.675 116.141ZM775.167 141.523C777.258 141.523 778.761 140.494 779.675 138.436C780.59 136.345 781.047 133.307 781.047 129.322C781.047 125.337 780.672 122.495 779.92 120.796C779.202 119.097 778.156 118.248 776.784 118.248C775.674 118.248 774.677 118.624 773.795 119.375C772.946 120.126 772.374 121.172 772.08 122.511V140.2C772.864 141.082 773.893 141.523 775.167 141.523ZM808.321 116.141C809.791 116.141 810.902 116.582 811.653 117.464C812.404 118.346 812.78 119.408 812.78 120.649C812.78 121.858 812.421 122.854 811.702 123.638C811.016 124.389 810.101 124.765 808.958 124.765C807.847 124.765 806.965 124.487 806.312 123.932C805.659 123.344 805.332 122.576 805.332 121.629C805.332 120.061 806.051 118.787 807.488 117.807C807.357 117.774 807.161 117.758 806.9 117.758C806.573 117.758 806.312 117.791 806.116 117.856C804.875 118.052 803.813 118.803 802.931 120.11C802.082 121.417 801.657 122.756 801.657 124.128V137.113C801.657 138.616 802.016 139.661 802.735 140.249C803.486 140.837 804.662 141.131 806.263 141.131V142.16C805.806 142.16 805.43 142.144 805.136 142.111C801.804 142.013 799.583 141.964 798.472 141.964C797.59 141.964 795.581 142.013 792.445 142.111C792.184 142.144 791.857 142.16 791.465 142.16V141.131C792.641 141.131 793.458 140.886 793.915 140.396C794.372 139.873 794.601 138.942 794.601 137.603V122.168C794.601 120.665 794.372 119.571 793.915 118.885C793.458 118.199 792.641 117.856 791.465 117.856V116.827C792.51 116.925 793.523 116.974 794.503 116.974C797.41 116.974 799.795 116.745 801.657 116.288V120.845C802.278 119.44 803.176 118.313 804.352 117.464C805.528 116.582 806.851 116.141 808.321 116.141ZM826.31 116.141C830.067 116.141 833.007 117.219 835.13 119.375C837.254 121.498 838.315 124.879 838.315 129.518C838.315 134.157 837.254 137.538 835.13 139.661C833.007 141.784 830.067 142.846 826.31 142.846C822.586 142.846 819.646 141.784 817.49 139.661C815.367 137.538 814.305 134.157 814.305 129.518C814.305 124.879 815.367 121.498 817.49 119.375C819.646 117.219 822.586 116.141 826.31 116.141ZM826.31 117.121C824.906 117.121 823.779 118.15 822.929 120.208C822.113 122.233 821.704 125.337 821.704 129.518C821.704 133.699 822.113 136.803 822.929 138.828C823.779 140.853 824.906 141.866 826.31 141.866C827.748 141.866 828.875 140.87 829.691 138.877C830.508 136.852 830.916 133.732 830.916 129.518C830.916 125.304 830.492 122.184 829.642 120.159C828.826 118.134 827.715 117.121 826.31 117.121ZM854.114 116.141C855.323 116.141 856.466 116.272 857.544 116.533C858.622 116.794 859.521 117.154 860.239 117.611C861.089 118.134 861.742 118.803 862.199 119.62C862.689 120.404 862.934 121.27 862.934 122.217C862.934 123.36 862.575 124.308 861.856 125.059C861.138 125.778 860.207 126.137 859.063 126.137C857.92 126.137 857.005 125.81 856.319 125.157C855.633 124.504 855.29 123.622 855.29 122.511C855.29 121.531 855.601 120.682 856.221 119.963C856.842 119.244 857.61 118.754 858.524 118.493C858.263 118.134 857.855 117.856 857.299 117.66C856.777 117.431 856.205 117.317 855.584 117.317C853.624 117.317 852.089 118.395 850.978 120.551C849.9 122.674 849.361 125.467 849.361 128.93C849.361 132.425 849.982 134.941 851.223 136.476C852.465 138.011 854.016 138.779 855.878 138.779C856.989 138.779 858.1 138.485 859.21 137.897C860.354 137.309 861.383 136.28 862.297 134.81L863.13 135.104C862.477 137.227 861.334 139.057 859.7 140.592C858.067 142.095 855.96 142.846 853.379 142.846C850.015 142.846 847.271 141.735 845.147 139.514C843.024 137.293 841.962 133.993 841.962 129.616C841.962 126.741 842.485 124.291 843.53 122.266C844.576 120.241 846.013 118.722 847.842 117.709C849.672 116.664 851.762 116.141 854.114 116.141ZM880.089 138.828C882.768 138.828 884.924 137.521 886.557 134.908L887.439 135.202C886.786 137.325 885.61 139.138 883.911 140.641C882.245 142.111 880.154 142.846 877.639 142.846C874.176 142.846 871.416 141.752 869.358 139.563C867.333 137.342 866.32 134.075 866.32 129.763C866.32 125.353 867.414 121.988 869.603 119.669C871.792 117.317 874.699 116.141 878.325 116.141C884.466 116.141 887.537 119.767 887.537 127.019H873.768C873.735 127.509 873.719 128.277 873.719 129.322C873.719 131.478 874.013 133.275 874.601 134.712C875.222 136.149 876.006 137.195 876.953 137.848C877.933 138.501 878.978 138.828 880.089 138.828ZM878.031 117.17C876.855 117.17 875.875 117.905 875.091 119.375C874.34 120.812 873.866 123.05 873.67 126.088H881.363C881.428 123.507 881.167 121.384 880.579 119.718C880.024 118.019 879.174 117.17 878.031 117.17ZM900.076 116.141C901.318 116.141 902.461 116.304 903.506 116.631C904.552 116.925 905.352 117.268 905.907 117.66C906.234 117.889 906.528 118.003 906.789 118.003C907.083 118.003 907.328 117.856 907.524 117.562C907.753 117.235 907.9 116.778 907.965 116.19H908.994C908.864 117.856 908.798 120.731 908.798 124.814H907.769C907.475 122.658 906.822 120.861 905.809 119.424C904.829 117.954 903.392 117.219 901.497 117.219C900.517 117.219 899.701 117.497 899.047 118.052C898.427 118.607 898.116 119.375 898.116 120.355C898.116 121.466 898.492 122.429 899.243 123.246C899.995 124.03 901.171 124.994 902.771 126.137L904.192 127.166C906.185 128.669 907.655 130.008 908.602 131.184C909.55 132.36 910.023 133.83 910.023 135.594C910.023 137.031 909.599 138.305 908.749 139.416C907.933 140.527 906.822 141.376 905.417 141.964C904.013 142.552 902.461 142.846 900.762 142.846C898.966 142.846 897.43 142.503 896.156 141.817C895.111 141.294 894.36 140.951 893.902 140.788C893.576 140.69 893.282 140.804 893.02 141.131C892.792 141.425 892.612 141.882 892.481 142.503H891.452C891.583 140.641 891.648 137.374 891.648 132.703H892.677C893.331 138.714 895.536 141.719 899.292 141.719C900.24 141.719 901.04 141.441 901.693 140.886C902.379 140.298 902.722 139.416 902.722 138.24C902.722 137.325 902.51 136.509 902.085 135.79C901.693 135.071 901.187 134.434 900.566 133.879C899.946 133.324 899.015 132.556 897.773 131.576C896.303 130.4 895.176 129.453 894.392 128.734C893.641 128.015 892.988 127.166 892.432 126.186C891.91 125.206 891.648 124.112 891.648 122.903C891.648 120.812 892.465 119.163 894.098 117.954C895.732 116.745 897.724 116.141 900.076 116.141ZM922.71 116.141C923.951 116.141 925.095 116.304 926.14 116.631C927.185 116.925 927.986 117.268 928.541 117.66C928.868 117.889 929.162 118.003 929.423 118.003C929.717 118.003 929.962 117.856 930.158 117.562C930.387 117.235 930.534 116.778 930.599 116.19H931.628C931.497 117.856 931.432 120.731 931.432 124.814H930.403C930.109 122.658 929.456 120.861 928.443 119.424C927.463 117.954 926.026 117.219 924.131 117.219C923.151 117.219 922.334 117.497 921.681 118.052C921.06 118.607 920.75 119.375 920.75 120.355C920.75 121.466 921.126 122.429 921.877 123.246C922.628 124.03 923.804 124.994 925.405 126.137L926.826 127.166C928.819 128.669 930.289 130.008 931.236 131.184C932.183 132.36 932.657 133.83 932.657 135.594C932.657 137.031 932.232 138.305 931.383 139.416C930.566 140.527 929.456 141.376 928.051 141.964C926.646 142.552 925.095 142.846 923.396 142.846C921.599 142.846 920.064 142.503 918.79 141.817C917.745 141.294 916.993 140.951 916.536 140.788C916.209 140.69 915.915 140.804 915.654 141.131C915.425 141.425 915.246 141.882 915.115 142.503H914.086C914.217 140.641 914.282 137.374 914.282 132.703H915.311C915.964 138.714 918.169 141.719 921.926 141.719C922.873 141.719 923.674 141.441 924.327 140.886C925.013 140.298 925.356 139.416 925.356 138.24C925.356 137.325 925.144 136.509 924.719 135.79C924.327 135.071 923.821 134.434 923.2 133.879C922.579 133.324 921.648 132.556 920.407 131.576C918.937 130.4 917.81 129.453 917.026 128.734C916.275 128.015 915.621 127.166 915.066 126.186C914.543 125.206 914.282 124.112 914.282 122.903C914.282 120.812 915.099 119.163 916.732 117.954C918.365 116.745 920.358 116.141 922.71 116.141ZM941.081 135.3C942.355 135.3 943.367 135.643 944.119 136.329C944.87 136.982 945.246 137.897 945.246 139.073C945.246 140.249 944.87 141.18 944.119 141.866C943.367 142.519 942.355 142.846 941.081 142.846C939.807 142.846 938.794 142.519 938.043 141.866C937.291 141.18 936.916 140.249 936.916 139.073C936.916 137.897 937.291 136.982 938.043 136.329C938.794 135.643 939.807 135.3 941.081 135.3Z" fill="white"/>
</svg>
