<svg width="299" height="300" viewBox="0 0 299 300" fill="none" xmlns="http://www.w3.org/2000/svg">
<path fill-rule="evenodd" clip-rule="evenodd" d="M286.174 67.0234C279.301 67.0234 273.731 61.4537 273.731 54.5835V43.1988L187.13 129.771C182.284 134.627 174.418 134.635 169.562 129.788L103.672 63.9107L21.2256 146.357C16.3798 151.213 8.51365 151.222 3.65741 146.374C-1.19434 141.516 -1.21286 133.629 3.6389 128.771L94.8701 37.5401C99.726 32.688 107.592 32.688 112.446 37.5401L178.337 103.372L256.145 25.5624H244.692C237.821 25.5624 232.251 19.9927 232.251 13.1201C232.251 6.24956 237.821 0.677734 244.692 0.677734H286.174C286.97 0.677734 287.762 0.760312 288.542 0.92039C288.838 0.955631 289.128 1.02731 289.406 1.13423C290.307 1.32566 291.173 1.65284 291.978 2.10589C292.342 2.28076 292.69 2.49026 293.015 2.72709C293.371 2.93063 293.698 3.18209 293.986 3.47358C294.657 3.98637 295.254 4.58696 295.762 5.26027C296.056 5.54593 296.309 5.87311 296.511 6.23089C296.75 6.55807 296.962 6.90376 297.141 7.26812C297.593 8.06881 297.92 8.93266 298.112 9.83206C298.221 10.1117 298.289 10.4043 298.316 10.7046C298.505 11.4921 298.606 12.3013 298.616 13.1119V54.5835C298.616 61.4537 293.046 67.0234 286.174 67.0234V67.0234Z" fill="#DBC6B9"/>
<path fill-rule="evenodd" clip-rule="evenodd" d="M24.8757 195.649C24.8757 188.779 30.4457 183.209 37.3182 183.209C44.1886 183.209 49.7606 188.779 49.7606 195.649V286.88C49.7586 293.753 44.1886 299.323 37.3182 299.323C30.4457 299.323 24.8757 293.753 24.8757 286.88V195.649V195.649Z" fill="#DBC6B9"/>
<path fill-rule="evenodd" clip-rule="evenodd" d="M99.5284 137.562C99.5284 130.691 105.1 125.119 111.971 125.119C118.843 125.119 124.413 130.691 124.413 137.562V286.879C124.413 293.752 118.843 299.322 111.971 299.322C105.1 299.322 99.5284 293.752 99.5284 286.879V137.562V137.562Z" fill="#DBC6B9"/>
<path fill-rule="evenodd" clip-rule="evenodd" d="M174.183 179.072C174.374 172.198 180.103 166.78 186.977 166.972C193.582 167.156 198.893 172.467 199.078 179.072V286.908C199.062 293.766 193.494 299.317 186.636 299.322C179.763 299.328 174.189 293.762 174.183 286.89V179.072V179.072Z" fill="#DBC6B9"/>
<path fill-rule="evenodd" clip-rule="evenodd" d="M248.846 112.677C248.846 105.807 254.418 100.234 261.288 100.234C268.161 100.234 273.731 105.807 273.731 112.677V286.879C273.731 293.752 268.161 299.322 261.288 299.322C254.418 299.322 248.846 293.752 248.846 286.879V112.677V112.677Z" fill="#DBC6B9"/>
</svg>
