<svg width="666" height="444" viewBox="0 0 666 444" fill="none" xmlns="http://www.w3.org/2000/svg">
<path fill-rule="evenodd" clip-rule="evenodd" d="M626 0C648.091 0 666 17.9087 666 40V404C666 426.091 648.091 444 626 444H40C17.9087 444 0 426.091 0 404V40C0 17.9087 17.9087 0 40 0H626V0Z" fill="white"/>
<path fill-rule="evenodd" clip-rule="evenodd" d="M100 135.248V308.75C100.043 342.004 126.988 368.951 160.241 368.994H320.38C353.633 368.951 380.578 342.004 380.621 308.753V135.248C380.58 101.996 353.633 75.0499 320.38 75.0063H160.241C126.988 75.0499 100.043 101.994 100 135.248V135.248ZM231.857 170.023C224.855 164.482 214.964 164.482 207.964 170.023L175.992 195.256V94.4185H263.807V195.256L231.857 170.023V170.023Z" fill="#DBC6B9"/>
<path fill-rule="evenodd" clip-rule="evenodd" d="M160.26 349.564C137.731 349.541 119.471 331.282 119.449 308.753V135.248C119.482 114.155 135.568 96.5558 156.572 94.6322V208.33C156.572 215.583 162.453 221.462 169.704 221.462C172.651 221.46 175.513 220.47 177.828 218.647L219.822 185.396L261.974 218.647C267.682 223.129 275.943 222.133 280.425 216.423C282.235 214.114 283.223 211.264 283.227 208.33V94.4863H320.361C342.886 94.4902 361.158 112.725 361.211 135.248V308.753C361.189 331.282 342.929 349.541 320.4 349.564H160.26V349.564Z" fill="#DBC6B9"/>
</svg>
