<svg width="306" height="308" viewBox="0 0 306 308" fill="none" xmlns="http://www.w3.org/2000/svg">
<path fill-rule="evenodd" clip-rule="evenodd" d="M245.375 239.367C265.35 238.913 281.433 222.829 281.89 202.853V161.275C282.359 140.639 266.011 123.528 245.375 123.059C224.739 122.588 207.628 138.935 207.157 159.573C207.144 160.141 207.144 160.707 207.157 161.275V202.853C207.628 223.489 224.739 239.837 245.375 239.367V239.367ZM244.159 222.056C233.653 221.821 225.192 213.36 224.957 202.853V161.275C224.961 150.39 233.791 141.567 244.677 141.571C255.556 141.576 264.377 150.394 264.381 161.275H264.235V202.853C263.994 213.699 255.005 222.296 244.159 222.056V222.056Z" fill="#DBC6B9"/>
<path fill-rule="evenodd" clip-rule="evenodd" d="M288.402 220.004C285.966 238.62 266.429 254.371 245.698 254.371H243.359C222.628 254.371 203.091 238.62 200.655 220.004C200.163 215.107 195.797 211.537 190.899 212.027C186.005 212.519 182.434 216.887 182.924 221.782C182.943 221.953 182.963 222.124 182.99 222.294C186.28 247.305 209.099 268.221 235.556 271.472V290.02H215.99C211.114 289.856 207.031 293.677 206.869 298.552C206.706 303.427 210.527 307.511 215.402 307.673C215.597 307.68 215.793 307.68 215.99 307.673H273.067C277.941 307.834 282.026 304.015 282.188 299.139C282.351 294.264 278.53 290.18 273.653 290.02C273.458 290.011 273.262 290.011 273.067 290.02H253.355V271.472C279.822 267.939 302.853 247.305 305.921 222.294C306.569 217.465 303.159 213.023 298.33 212.374C293.482 211.745 289.04 215.157 288.402 220.004V220.004Z" fill="#DBC6B9"/>
<path fill-rule="evenodd" clip-rule="evenodd" d="M44.9213 290.019C30.2893 290.019 18.4251 278.154 18.4251 263.522V44.4715C18.4251 29.8383 30.2893 17.9762 44.9213 17.9762H214.476C229.105 17.9799 240.965 29.8402 240.972 44.4715V86.8653C240.809 91.7396 244.63 95.8242 249.504 95.9849C254.379 96.1469 258.463 92.3263 258.624 87.4516C258.632 87.2562 258.632 87.0604 258.624 86.8653V44.4715C258.587 20.1035 238.842 0.358348 214.476 0.321777H44.9213C20.5528 0.358348 0.805773 20.101 0.762451 44.4715V263.484C0.805773 287.854 20.5528 307.597 44.9213 307.634H161.241C166.115 307.796 170.2 303.975 170.362 299.1C170.525 294.225 166.704 290.142 161.827 289.98C161.632 289.973 161.465 290.013 161.27 290.019H44.9213V290.019Z" fill="#DBC6B9"/>
<path fill-rule="evenodd" clip-rule="evenodd" d="M62.6043 99.2476H196.84C201.718 99.2476 205.673 95.2949 205.673 90.416C205.673 85.5376 201.718 81.585 196.84 81.585H62.6043C57.7278 81.585 53.7729 85.5376 53.7729 90.416C53.7729 95.2949 57.7278 99.2476 62.6043 99.2476V99.2476Z" fill="#DBC6B9"/>
<path fill-rule="evenodd" clip-rule="evenodd" d="M53.7729 153.997C53.7729 158.874 57.7278 162.828 62.6043 162.828H161.512C166.391 162.828 170.346 158.874 170.346 153.997C170.346 149.118 166.391 145.163 161.512 145.163H62.6043C57.7278 145.163 53.7729 149.118 53.7729 153.997V153.997Z" fill="#DBC6B9"/>
<path fill-rule="evenodd" clip-rule="evenodd" d="M126.195 208.744H62.6042C57.7278 208.744 53.7729 212.699 53.7729 217.576C53.7729 222.454 57.7278 226.409 62.6042 226.409H126.195C131.072 226.409 135.027 222.454 135.027 217.576C135.027 212.699 131.072 208.744 126.195 208.744V208.744Z" fill="#DBC6B9"/>
</svg>
