<svg width="100" height="100" viewBox="0 0 100 100" fill="none" xmlns="http://www.w3.org/2000/svg">
<g id="&#231;&#187;&#132; 213" opacity="0.998923">
<path id="&#232;&#183;&#175;&#229;&#190;&#132; 323" opacity="0.798013" fill-rule="evenodd" clip-rule="evenodd" d="M73.7489 58.6679C70.5916 64.2856 67.3475 70.1641 64.1892 70.4712C60.8718 69.5713 57.8741 67.7593 55.5388 65.2383C51.5247 60.7159 45.7546 58.1489 39.7074 58.1904C30.365 58.5835 27.1898 61.5645 19.9236 74.1016C18.6777 75.8511 12.9115 94.8623 14.6636 96.1064C16.4149 97.3515 22.658 86.5654 23.9083 84.815C24.0466 84.6182 12.8816 96.4122 12.9814 96.1938L14.6636 98.3193C20.5463 88.1578 50.7013 94.5352 57.1895 94.2788C61.203 94.3501 63.3407 83.4902 65.8842 86.5981C69.3401 90.3164 58.3459 77.1441 63.3243 78.122C63.5234 78.1646 63.731 78.1646 63.9296 78.122C71.8021 78.122 88.0663 78.6831 92.3048 70.9033C95.7225 64.6816 93.9758 54.7915 93.8688 49.4448L43.9063 94.2788L92.3048 92.2168C92.3048 92.2168 46.8386 92.2168 25.7198 92.2168C4.6011 92.2168 7.8293 92.2168 7.8293 92.2168V14.8681H67.0438C69.1814 14.6469 70.7299 12.729 70.5045 10.5937C70.3099 8.7695 68.8695 7.3267 67.0438 7.13279H3.8929C1.7646 7.10892 0.0219 8.81203 0.0002 10.9399V96.1064C-0.0258 98.2344 1.6786 99.9756 3.8066 100H96.1115C98.2355 100.025 99.978 98.3218 100 96.1938V42.4545C99.866 40.4434 98.2131 38.8657 96.198 38.8208C84.6919 38.8208 78.6367 49.8023 73.7489 58.6679V58.6679Z" fill="#9B9896"/>
<path id="&#229;&#183;&#174;&#233;&#155;&#134;" opacity="0.80112" fill-rule="evenodd" clip-rule="evenodd" d="M47.4786 30.1748C47.493 25.0293 43.5909 20.8452 38.7601 20.8271C33.9383 20.8271 29.9971 24.9795 29.9825 30.1103C29.9647 35.2583 33.867 39.4424 38.701 39.4585C43.5313 39.4775 47.4605 35.3213 47.4786 30.1748V30.1748ZM35.2695 30.4878C35.1721 28.4648 36.6306 26.7441 38.5288 26.6406L38.8489 26.6372C40.6284 26.7036 42.0634 28.2163 42.1404 30.1104C42.2356 32.1328 40.7766 33.854 38.8784 33.958C36.9836 34.0615 35.3642 32.5049 35.2695 30.4878V30.4878Z" fill="#9B9896"/>
<path id="&#232;&#183;&#175;&#229;&#190;&#132; 324" opacity="0.80112" fill-rule="evenodd" clip-rule="evenodd" d="M89.6464 2.54236C89.4923 0.981813 88.1759 -0.149049 86.7111 0.0159887C85.4594 0.157113 84.4691 1.20985 84.3385 2.54236V7.84802H77.5177C76.0617 7.93347 74.944 9.25575 75.0241 10.8065C75.1103 12.2348 76.1776 13.4081 77.5177 13.5009H84.3385V20.7631C84.4928 22.3266 85.8063 23.4564 87.2711 23.2909C88.5255 23.1493 89.5128 22.098 89.6464 20.7631V13.5009H94.8065C96.2716 13.6669 97.5851 12.5336 97.7394 10.973C97.8961 9.41345 96.8998 8.17225 95.4347 8.00574C95.2482 7.98572 94.9638 7.98572 94.777 8.00574H89.6464V2.54236V2.54236Z" fill="#9B9896"/>
</g>
</svg>
