<svg width="32" height="40" viewBox="0 0 32 40" fill="none" xmlns="http://www.w3.org/2000/svg">
<path opacity="0.5" fill-rule="evenodd" clip-rule="evenodd" d="M22.2773 1.27701C18.3149 -0.42567 13.7646 -0.42567 9.79881 1.27701C7.85449 2.08457 6.10204 3.24961 4.64209 4.70661C3.19629 6.17821 2.05858 7.89541 1.29052 9.76589C0.439914 11.7263 0.00388844 13.8255 0.000976483 15.9441V36.9109C-0.0419989 38.5674 1.33884 39.9465 3.0952 40H28.8779C30.644 39.9611 32.0415 38.5771 31.9985 36.9134V15.9441C32.0239 13.8303 31.6113 11.7312 30.7866 9.76589H30.8887C30.084 7.89057 28.914 6.17333 27.4341 4.70661C25.98 3.24473 24.227 2.07725 22.2773 1.27701ZM16.0721 32.5643C15.2615 32.5546 14.6063 31.9368 14.5965 31.1706V27.1815C13.3484 26.5345 12.8919 25.0556 13.5779 23.8784C13.5984 23.8443 13.6194 23.8102 13.6429 23.7762C14.1663 22.9225 15.1849 22.4506 16.221 22.5844C17.6014 22.6768 18.6985 23.713 18.7996 25.0167C18.7996 25.9021 18.3738 26.7023 17.5877 27.1815V31.1706C17.5779 31.9489 16.8987 32.574 16.0721 32.5643ZM3.27845 15.9684C3.27064 14.2341 3.62123 12.5169 4.30725 10.9091C4.95131 9.39129 5.89514 8.00483 7.09192 6.82274C8.22573 5.6771 9.59584 4.75768 11.1158 4.12281C12.6661 3.44176 14.3551 3.08422 16.0636 3.0769C17.7604 3.07937 19.4362 3.41253 20.9889 4.04987C22.5026 4.71633 23.8693 5.65036 25.0109 6.79836C26.2071 7.99025 27.15 9.38644 27.798 10.9091C28.4835 12.5169 28.8336 14.2341 28.8273 15.9684L28.8781 17.3062H3.27845V15.9684Z" fill="#161616"/>
</svg>
