<svg width="260" height="320" viewBox="0 0 260 320" fill="none" xmlns="http://www.w3.org/2000/svg">
<path fill-rule="evenodd" clip-rule="evenodd" d="M138.386 2.54304C171.935 10.8115 186.159 35.545 186.159 35.545H40.1416C31.3203 43.8688 23.6846 53.4064 17.5107 63.8832H44.1417C44.1417 63.8832 62.8984 64.5523 62.8984 81.0893C62.8984 85.2247 61.8565 88.8407 60.2802 91.9421C55.8271 100.723 46.3163 105.892 36.3604 105.892H1.958C0.674897 113.122 0.000976562 120.56 0.000976562 128.152V135.571H91.5839C91.5839 135.571 113.224 134.83 113.224 155.5C113.224 176.17 83.8702 176.17 83.8702 176.17H0.000976562V204.499H181.431C184.612 204.499 186.184 208.272 183.948 210.503C173.264 221.17 147.72 242.312 113.224 242.312H0.000976562V320L66.0498 256.304H130.001C201.794 256.304 260.001 198.928 260.001 128.152C260.001 57.3757 201.794 0 130.001 0C128.009 0 126.036 0.05088 124.073 0.13856C129.617 0.79168 134.487 1.58304 138.386 2.54304ZM185.555 176.17H170.178C164.341 176.17 158.497 174.919 153.442 172.035C148.009 168.935 142.58 163.768 142.58 155.5C142.58 148.266 146.141 143.546 150.151 140.526C154.7 137.099 160.437 135.569 166.163 135.569H209.308C212.505 135.569 214.79 138.613 213.855 141.624L208.289 159.58C205.235 169.436 196.007 176.17 185.555 176.17Z" fill="#302929"/>
</svg>
