<svg width="30" height="30" viewBox="0 0 30 30" fill="none" xmlns="http://www.w3.org/2000/svg">
<path fill-rule="evenodd" clip-rule="evenodd" d="M22 11C22 13.9495 20.8486 16.7192 18.7578 18.7989C16.6826 20.8632 13.9275 22 11 22C8.07248 22 5.31738 20.8632 3.24218 18.7989C1.15144 16.7192 0 13.9495 0 11C0 8.0505 1.15144 5.28081 3.24218 3.20109C5.31738 1.13683 8.07248 0 11 0C13.9275 0 16.6826 1.13683 18.7578 3.20109C20.8486 5.28081 22 8.0505 22 11ZM11 2.43579C6.22046 2.43579 2.33203 6.2777 2.33203 11C2.33203 15.7224 6.22046 19.5643 11 19.5643C15.7795 19.5643 19.6679 15.7224 19.6679 11C19.6679 6.2777 15.7795 2.43579 11 2.43579Z" fill="#DBC6B9"/>
<path fill-rule="evenodd" clip-rule="evenodd" d="M17.1201 19.1743L18.7681 17.5859L29.9999 28.4116L28.3519 30L17.1201 19.1743Z" fill="#DBC6B9"/>
</svg>
