<svg width="11" height="8" viewBox="0 0 11 8" fill="none" xmlns="http://www.w3.org/2000/svg">
<path fill-rule="evenodd" clip-rule="evenodd" d="M10.5587 1.09204V1.63635H0.532227V1.09204H10.5587Z" fill="#DBC6B9"/>
<path fill-rule="evenodd" clip-rule="evenodd" d="M5.06518 4.2854C5.04419 4.35675 5.04297 4.42438 5.06543 4.49811C5.16528 4.57837 5.27222 4.63769 5.38965 4.68146L5.71997 4.86829L5.91821 5.03204C6.05615 5.1759 6.13574 5.36755 6.14209 5.57208C6.14209 5.77942 6.07056 5.97931 5.94067 6.13513C5.83008 6.28052 5.67944 6.38556 5.50488 6.43884V6.81079H5.18701V6.43976C4.99634 6.42419 4.81738 6.34106 4.68311 6.20532C4.53418 6.0473 4.43994 5.83923 4.41797 5.61951L4.79834 5.61401C4.82495 5.75549 4.88379 5.8941 4.97632 6.01221C5.08228 6.04968 5.19605 6.04755 5.2981 6.01056" fill="#DBC6B9"/>
<path fill-rule="evenodd" clip-rule="evenodd" d="M4.79834 5.61377C4.82422 5.75519 4.88623 5.89557 4.97632 6.01196L4.79834 5.61377Z" fill="#DBC6B9"/>
<path fill-rule="evenodd" clip-rule="evenodd" d="M4.97626 6.01233C5.07562 6.04584 5.19403 6.04755 5.29803 6.01068C5.48602 6.01068 5.69061 5.86554 5.71258 5.6698C5.75384 5.57092 5.75384 5.36517 5.71307 5.27136L5.58514 5.17774L5.34174 5.03796C5.18158 4.97314 5.03119 4.87738 4.90057 4.75763C4.79462 4.63141 4.72992 4.46008 4.72357 4.28778V4.03107C4.71454 3.97052 4.71454 3.90729 4.72357 3.84381L4.92303 3.67749L5.16498 3.67639V3.32666H5.45868V3.67706C5.57562 3.6961 5.6889 3.74451 5.78656 3.81714" fill="#DBC6B9"/>
<path fill-rule="evenodd" clip-rule="evenodd" d="M5.34155 5.03766C5.18091 4.97272 5.03247 4.8783 4.90039 4.75732L5.34155 5.03766Z" fill="#DBC6B9"/>
<path fill-rule="evenodd" clip-rule="evenodd" d="M4.90063 4.75745C4.79297 4.62903 4.73022 4.46228 4.72363 4.2876L4.90063 4.75745Z" fill="#DBC6B9"/>
<path fill-rule="evenodd" clip-rule="evenodd" d="M5.78687 3.81689C5.89331 3.90411 5.97729 4.0177 6.03003 4.14557L5.69531 4.36725C5.63086 4.2027 5.49023 4.08221 5.32373 4.0614" fill="#DBC6B9"/>
<path fill-rule="evenodd" clip-rule="evenodd" d="M5.69507 4.36705C5.63306 4.20293 5.48926 4.08214 5.32349 4.0612C5.23682 4.02635 5.14404 4.02672 5.0625 4.06084" fill="#DBC6B9"/>
<path fill-rule="evenodd" clip-rule="evenodd" d="M5.06224 4.06104C5.03221 4.12964 5.03221 4.21436 5.06492 4.28528C5.0449 4.35822 5.0449 4.42865 5.06517 4.49799" fill="#DBC6B9"/>
<path fill-rule="evenodd" clip-rule="evenodd" d="M5.06543 4.49805C5.1626 4.57513 5.27222 4.6377 5.38965 4.6814L5.06543 4.49805Z" fill="#DBC6B9"/>
<path fill-rule="evenodd" clip-rule="evenodd" d="M5.50488 6.43872C5.67871 6.38635 5.83057 6.27991 5.94067 6.13501L5.50488 6.43872Z" fill="#DBC6B9"/>
<path fill-rule="evenodd" clip-rule="evenodd" d="M5.94092 6.13507C6.06958 5.9809 6.14233 5.77679 6.14233 5.57202L5.94092 6.13507Z" fill="#DBC6B9"/>
<path fill-rule="evenodd" clip-rule="evenodd" d="M6.14233 5.57202C6.13574 5.37012 6.0542 5.17364 5.91846 5.03198L6.14233 5.57202Z" fill="#DBC6B9"/>
<path fill-rule="evenodd" clip-rule="evenodd" d="M5.06483 4.28542C5.03114 4.21541 5.02821 4.13485 5.06215 4.06118C5.15077 4.02083 5.23646 4.02626 5.32313 4.06154" fill="#DBC6B9"/>
<path fill-rule="evenodd" clip-rule="evenodd" d="M6.02954 4.14551C5.97729 4.02081 5.89063 3.90204 5.78638 3.81683C5.68921 3.74445 5.57544 3.69513 5.4585 3.67676" fill="#DBC6B9"/>
<path fill-rule="evenodd" clip-rule="evenodd" d="M4.72384 3.84375C4.71676 3.90314 4.7148 3.9707 4.72384 4.03101V3.84375Z" fill="#DBC6B9"/>
<path fill-rule="evenodd" clip-rule="evenodd" d="M5.71338 5.27124C5.75049 5.36487 5.75317 5.57495 5.71289 5.66968L5.71338 5.27124Z" fill="#DBC6B9"/>
<path fill-rule="evenodd" clip-rule="evenodd" d="M5.7124 5.66968C5.68823 5.88605 5.51001 6.03705 5.29785 6.01056L5.7124 5.66968Z" fill="#DBC6B9"/>
<path fill-rule="evenodd" clip-rule="evenodd" d="M4.41797 5.61938C4.44067 5.8349 4.53711 6.05023 4.68311 6.2052L4.41797 5.61938Z" fill="#DBC6B9"/>
<path fill-rule="evenodd" clip-rule="evenodd" d="M4.68311 6.20532C4.81689 6.34033 4.99707 6.42535 5.18701 6.43976L4.68311 6.20532Z" fill="#DBC6B9"/>
<path fill-rule="evenodd" clip-rule="evenodd" d="M0 2.20703H11V7.99988H0V2.20703Z" fill="#DBC6B9"/>
<path fill-rule="evenodd" clip-rule="evenodd" d="M10.5536 1.09692V1.63123H0.537109V1.09692H10.5536Z" fill="#DBC6B9"/>
<path fill-rule="evenodd" clip-rule="evenodd" d="M10.9949 2.21216H0.00488281V7.995H10.9949V2.21216ZM5.34399 5.03357C5.1831 4.96844 5.03613 4.87512 4.90417 4.75391C4.79639 4.62561 4.73499 4.46002 4.72852 4.28754V4.03095C4.71948 3.97034 4.71948 3.90735 4.72852 3.84442L4.92603 3.68121H5.16992V3.33154H5.45361V3.68121C5.57214 3.69983 5.68652 3.7489 5.78345 3.82105C5.88879 3.90735 5.97217 4.01935 6.02515 4.14765L5.69727 4.35986C5.63391 4.19177 5.49072 4.0777 5.32385 4.05658C5.23816 4.02167 5.14343 4.02167 5.06043 4.05658C5.0271 4.12903 5.0271 4.21527 5.06043 4.28754C5.04016 4.35748 5.04016 4.42975 5.06043 4.49957C5.15881 4.5788 5.26892 4.64197 5.38757 4.68622L5.71741 4.87262L5.91479 5.03595C6.05139 5.17829 6.13049 5.36932 6.13709 5.57226C6.13709 5.77734 6.06714 5.97571 5.93689 6.13202C5.82507 6.27881 5.67102 6.38361 5.49988 6.43518V6.80579H5.19202V6.43518C5.00305 6.42084 4.82275 6.33942 4.68652 6.20184C4.53699 6.04321 4.44482 5.83807 4.42285 5.61902H4.79431C4.82056 5.76349 4.88196 5.89862 4.97229 6.01526C5.07788 6.05261 5.19409 6.05261 5.29968 6.01526C5.50659 6.04083 5.69336 5.8869 5.71741 5.67029C5.75916 5.57239 5.80505 5.38562 5.76331 5.29022L5.58777 5.17352L5.34399 5.03357Z" fill="#DBC6B9"/>
<path fill-rule="evenodd" clip-rule="evenodd" d="M9.97253 0.00488281V0.539551H1.07324V0.00488281H9.97253Z" fill="#DBC6B9"/>
<path fill-rule="evenodd" clip-rule="evenodd" d="M9.97766 0V0.544678H1.06836V0H9.97766Z" fill="#DBC6B9"/>
</svg>
